<?xml version="1.0" encoding="UTF-8" standalone="no"?>
<!-- Created with Inkscape (http://www.inkscape.org/) -->

<svg
   version="1.1"
   id="svg1"
   width="491.37665"
   height="104.43906"
   viewBox="0 0 491.37665 104.43906"
   sodipodi:docname="548919478_631845109768590_779718450798947577_n.jpg"
   xmlns:inkscape="http://www.inkscape.org/namespaces/inkscape"
   xmlns:sodipodi="http://sodipodi.sourceforge.net/DTD/sodipodi-0.dtd"
   xmlns="http://www.w3.org/2000/svg"
   xmlns:svg="http://www.w3.org/2000/svg">
  <defs
     id="defs1" />
  <sodipodi:namedview
     id="namedview1"
     pagecolor="#ffffff"
     bordercolor="#000000"
     borderopacity="0.25"
     inkscape:showpageshadow="2"
     inkscape:pageopacity="0.0"
     inkscape:pagecheckerboard="0"
     inkscape:deskcolor="#d1d1d1">
    <inkscape:page
       x="0"
       y="0"
       width="491.37665"
       height="104.43906"
       id="page2"
       margin="0"
       bleed="0" />
  </sodipodi:namedview>
  <g
     id="g384"
     transform="translate(-1329.7176,-544.86033)">
    <path
       style="display:inline;fill:#e6a211;fill-opacity:1"
       d="m 1459.5959,647.12634 c -0.055,-1.1 -0.1,-3.125 -0.1,-4.5 0,-4.78848 0.2123,-5.51233 2.2,-7.5 1.7879,-1.78791 3.3333,-2 14.5733,-2 11.4357,0 12.543,0.15835 12.2381,1.75 -0.2922,1.52483 -1.8087,1.78664 -11.7858,2.03474 -12.376,0.30775 -12.9847,0.58301 -13.0103,5.88347 -0.01,1.74252 -0.2884,3.88002 -0.6223,4.75 -0.8665,2.25813 -3.3742,1.95789 -3.493,-0.41821 z m 32.5491,0.72783 c -0.3036,-0.79116 -0.4164,-4.31157 -0.2506,-7.82311 0.2458,-5.20411 0.6331,-6.44782 2.095,-6.72638 1.6196,-0.3086 1.7651,0.41028 1.5,7.4097 -0.1927,5.08984 -0.7225,7.89341 -1.543,8.16487 -0.6872,0.22737 -1.4978,-0.23391 -1.8014,-1.02508 z m 19.2176,0.60551 c -0.3667,-0.36667 -0.6667,-3.04421 -0.6667,-5.9501 v -5.28343 l -5.75,-0.2999 c -4.3111,-0.22486 -5.75,-0.67526 -5.75,-1.79991 0,-1.2619 2.2222,-1.5 14,-1.5 11.7778,0 14,0.2381 14,1.5 0,1.09421 -1.3526,1.57939 -5,1.79344 -5.9978,0.352 -7.5,1.93382 -7.5,7.89769 0,4.06722 -1.3898,5.58577 -3.3333,3.64221 z m 51.3385,-2.05386 c -2.5119,-3.19333 -2.2424,-8.25487 0.6071,-11.40351 1.4832,-1.63899 3.2361,-1.87597 13.876,-1.87597 6.6981,0 12.4474,0.269 12.7761,0.59777 0.3288,0.32877 0.3557,1.22877 0.06,2 -0.4179,1.08909 -3.0745,1.40223 -11.8959,1.40223 -10.1921,0 -11.4637,0.19784 -12.3894,1.92756 -1.356,2.53363 -0.3435,4.96861 2.3215,5.583 1.1768,0.27131 6.6397,0.60492 12.1397,0.74137 8.112,0.20123 10,0.53128 10,1.74807 0,1.23961 -2.1968,1.54846 -12.6545,1.77917 l -12.6544,0.27916 z m 32.6615,2.05386 c -0.3667,-0.36667 -0.6667,-1.26667 -0.6667,-2 0,-1.03382 2.5833,-1.33334 11.5,-1.33334 7,0 11.5,-0.3913 11.5,-1 0,-0.60494 -4.2667,-1 -10.8,-1 -11.6821,0 -13.2,-0.58388 -13.2,-5.07755 0,-4.50704 1.6663,-5.00814 15.6395,-4.70315 10.6401,0.23224 12.8605,0.53968 12.8605,1.7807 0,1.23224 -2.0974,1.55029 -11.75,1.78174 -6.4625,0.15495 -11.75,0.70271 -11.75,1.21725 0,0.51453 5.0462,1.06275 11.2139,1.21826 10.9975,0.2773 11.2428,0.33448 12.7168,2.96441 1.373,2.44969 1.3411,2.86058 -0.3688,4.75 -1.6973,1.87543 -3.0077,2.06834 -14.0502,2.06834 -6.6981,0 -12.4784,-0.3 -12.845,-0.66666 z m 29.8333,-0.33334 c -1.4526,-2.3504 1.1586,-3 12.059,-3 6.9607,0 11.441,-0.3916 11.441,-1 0,-0.60767 -4.4333,-1 -11.3,-1 -12.211,0 -13.7,-0.55184 -13.7,-5.07755 0,-4.50704 1.6663,-5.00814 15.6395,-4.70315 10.6401,0.23224 12.8605,0.53968 12.8605,1.7807 0,1.22222 -2.2222,1.59259 -12,2 -14.1761,0.59067 -14.1936,1.70952 -0.03,1.93156 10.4839,0.16435 13.5302,1.32432 13.5302,5.152 0,4.12651 -2.4924,4.91644 -15.5124,4.91644 -7.1677,0 -12.6295,-0.42054 -12.9876,-1 z m 49.5726,-1.63486 c -2.6476,-3.36591 -2.6391,-7.37523 0.023,-10.75944 l 2.0956,-2.66403 12.6544,0.27917 c 10.4577,0.2307 12.6545,0.53956 12.6545,1.77916 0,1.23145 -2.0863,1.55029 -11.6532,1.7809 -13.0517,0.31461 -15.0825,1.21159 -13.0152,5.74872 1.0823,2.3754 1.4916,2.47038 10.647,2.47038 5.6809,0 9.5214,-0.40335 9.5214,-1 0,-0.57778 -3.1667,-1 -7.5,-1 -6.8333,0 -7.5,-0.17778 -7.5,-2 0,-1.8522 0.6667,-2 9.0215,-2 8.6524,0 9.068,0.10226 10.1605,2.5 0.8521,1.87016 0.8521,3.12984 0,5 -1.1225,2.46363 -1.3129,2.5 -13.088,2.5 -11.7174,0 -11.989,-0.051 -14.0214,-2.63486 z m 43.9274,0.22161 c 0,-2.01297 -0.8012,-2.8946 -3.75,-4.12638 -4.2483,-1.7746 -9.25,-6.18016 -9.25,-8.14746 0,-2.05547 2.1257,-1.53015 6.9005,1.70529 2.6131,1.77063 5.6999,2.9818 7.5995,2.9818 1.8996,0 4.9865,-1.21117 7.5995,-2.9818 4.9278,-3.3391 6.9005,-3.75941 6.9005,-1.47023 0,2.02383 -4.6531,6.09702 -8.7012,7.61675 -2.2897,0.85957 -3.2864,1.93031 -3.5,3.76 -0.4162,3.56368 -3.7988,4.15319 -3.7988,0.66203 z m 19.6667,1.74659 c -0.3667,-0.36667 -0.6667,-3.42667 -0.6667,-6.8 0,-10.35189 3.1541,-11.19029 10.6186,-2.82257 l 5.1186,5.73796 5.2778,-5.77473 c 3.7433,-4.09578 5.8894,-5.68741 7.3814,-5.47437 1.9245,0.27479 2.1036,0.93908 2.1036,7.80037 0,6 -0.3,7.5 -1.5,7.5 -1.0115,0 -1.6011,-1.22127 -1.8104,-3.75 -0.1707,-2.0625 -0.7343,-3.75 -1.2526,-3.75 -0.5182,0 -2.5684,1.8 -4.556,4 -1.9875,2.2 -4.3334,4 -5.213,4 -0.8796,0 -3.7522,-2.12058 -6.3836,-4.71241 -2.6314,-2.59182 -4.8418,-4.27932 -4.912,-3.75 -0.07,0.52933 -0.2319,1.93531 -0.3593,3.12441 -0.4871,4.54737 -2.0601,6.45766 -3.8464,4.67134 z m -272.6667,-7.33334 c 0,-1.97959 0.4579,-2.05557 10.75,-1.78383 8.7628,0.23136 10.75,0.56112 10.75,1.78383 0,1.22271 -1.9872,1.55247 -10.75,1.78383 -10.2921,0.27175 -10.75,0.19576 -10.75,-1.78383 z m 102,0 c 0,-1.87301 0.6667,-2 10.5,-2 9.8333,0 10.5,0.12699 10.5,2 0,1.87302 -0.6667,2 -10.5,2 -9.8333,0 -10.5,-0.12698 -10.5,-2 z m 35,-17 c -2.4069,-2.40692 -2.5007,-3.84018 -0.4433,-6.77749 1.8881,-2.69559 5.5382,-2.88013 7.7883,-0.39377 2.3046,2.54654 2.0643,5.7712 -0.5675,7.61456 -2.9373,2.05737 -4.3706,1.96363 -6.7775,-0.4433 z m -263.5,0.0358 c -5.4142,-2.267 -9.5168,-9.08604 -9.478,-15.75368 0.028,-4.90673 2.9981,-11.36619 6.4872,-14.11072 2.6602,-2.09247 3.6389,-2.1714 26.9257,-2.1714 24.9041,0 26.5651,0.25495 26.5651,4.07756 0,3.70615 -2.4122,4.15201 -25.2487,4.66693 -25.3636,0.57191 -25.7513,0.69014 -25.7513,7.8538 0,7.13539 0.9279,7.40171 25.7882,7.40171 12.8001,0 22.1175,0.41436 23.2775,1.03519 1.0976,0.58739 1.9343,2.08616 1.9343,3.46481 0,1.37865 -0.8367,2.87742 -1.9343,3.46482 -2.3277,1.24577 -45.6089,1.30903 -48.5657,0.071 z m 63,0.25096 c -2.8892,-0.69518 -7.526,-5.27172 -9.1232,-9.00464 -2.9812,-6.96761 -0.4171,-16.98107 5.411,-21.13105 2.8518,-2.03066 4.1512,-2.15107 23.2122,-2.15107 19.061,0 20.3604,0.12041 23.2122,2.15107 3.7381,2.66179 6.7421,9.04812 6.7494,14.34893 0.01,5.03327 -3.4171,11.21642 -7.8747,14.22043 -3.23,2.17671 -4.1995,2.27434 -21.4848,2.16357 -9.9562,-0.0638 -19.0021,-0.33256 -20.1021,-0.59724 z m 38.5,-10.28676 c 2.4142,-2.41418 2.6298,-7.65585 0.4433,-10.77749 -1.5085,-2.15364 -2.1025,-2.22251 -19.1713,-2.22251 -20.3618,0 -21.272,0.32513 -21.272,7.59829 0,6.91103 1.4069,7.40171 21.2225,7.40171 15.4442,0 16.9364,-0.15894 18.7775,-2 z m 19.3147,9.53634 c -5.0528,-2.19762 -6.3147,-5.85186 -6.3147,-18.28668 0,-7.10529 0.4141,-11.26379 1.2,-12.04966 1.5695,-1.56952 5.4622,-1.53954 6.491,0.05 0.4449,0.6875 1.034,5.975 1.309,11.75 l 0.5,10.5 22.4212,0.26959 c 14.4853,0.17417 22.8914,0.65994 23.75,1.37245 1.655,1.3736 1.7264,5.06037 0.1288,6.65796 -1.8271,1.8271 -45.2096,1.59596 -49.4853,-0.26366 z m 116.7804,0.0782 c -0.7821,-0.94234 -1.0611,-6.1398 -0.8725,-16.25 l 0.2774,-14.86454 2.5591,-0.298 c 1.7616,-0.20513 4.0988,0.92201 7.5,3.61689 8.0902,6.41021 12.4554,8.18111 20.1659,8.18111 7.5779,0 11.1913,-1.47446 19.8674,-8.10705 5.6205,-4.29666 8.7999,-4.89705 10.3724,-1.95869 0.5694,1.06384 1.0352,7.48872 1.0352,14.27749 0,12.66932 -1.1004,16.78825 -4.4853,16.78825 -3.2248,0 -4.5147,-3.02044 -4.5147,-10.57143 0,-4.08571 -0.413,-7.42857 -0.9178,-7.42857 -0.5048,0 -3.2148,1.1537 -6.0222,2.56377 -9.7737,4.90902 -21.2116,4.92678 -30.8397,0.0479 -2.8346,-1.4364 -5.6188,-2.61164 -6.187,-2.61164 -0.6246,0 -1.0333,3.15077 -1.0333,7.96482 0,6.85112 -0.2704,8.10956 -1.9342,9 -2.5745,1.3778 -3.5963,1.3058 -4.9707,-0.35028 z m 67.1817,-0.55709 c -3.7852,-2.34342 -4.497,-4.53967 -4.0829,-12.59912 l 0.3061,-5.95833 23.75,-0.2681 c 19.2719,-0.21754 23.75,-0.52552 23.75,-1.63337 0,-2.22707 -3.4257,-2.57053 -25.7814,-2.58487 -23.0743,-0.0148 -23.1813,-0.0419 -21.8074,-5.51589 l 0.6269,-2.49777 h 25.0579 25.0579 l 2.8049,2.80495 c 2.7159,2.71591 2.8058,3.14122 2.8322,13.39995 0.027,10.45988 -0.011,10.63135 -2.9453,13.44505 l -2.9727,2.85005 -21.6865,0.27643 c -20.1982,0.25746 -21.9077,0.13949 -24.9097,-1.71898 z m 43.7232,-8.55745 c 0,-1.28205 -2.8333,-1.5 -19.5,-1.5 -16.6667,0 -19.5,0.21795 -19.5,1.5 0,1.28205 2.8333,1.5 19.5,1.5 16.6667,0 19.5,-0.21795 19.5,-1.5 z m 20.3139,9.06683 c -1.7523,-0.77909 -4.4523,-3.32888 -6,-5.66619 -2.4398,-3.68469 -2.8598,-5.40803 -3.1592,-12.96281 -0.3843,-9.69606 0.6632,-12.93783 4.1805,-12.93783 3.8407,0 4.6648,1.86643 4.6648,10.56514 0,6.74626 0.3602,8.62301 2.0726,10.8 l 2.0726,2.63486 h 16.8166 c 21.2928,0 20.7892,0.30315 21.5311,-12.961 0.291,-5.20355 0.9223,-9.85414 1.4028,-10.33466 1.5744,-1.57439 5.5265,-0.25642 6.884,2.29566 1.9224,3.61443 0.927,15.93417 -1.7193,21.2796 -3.8797,7.83654 -4.9816,8.1876 -26.5604,8.46208 -14.6447,0.18628 -19.7303,-0.083 -22.1861,-1.17485 z m 57.4361,0.35307 c -2.0088,-1.17004 -2.3183,-4.95155 -0.55,-6.7199 0.8632,-0.86316 7.6,-1.2 24,-1.2 19.6,0 22.8,-0.21052 22.8,-1.5 0,-1.28582 -3.0055,-1.5 -21.0496,-1.5 -16.8594,0 -21.6337,-0.30197 -23.9831,-1.51692 -3.1766,-1.64267 -5.9673,-6.09914 -5.9673,-9.52913 0,-3.17708 3.0236,-7.72107 5.942,-8.92991 1.6318,-0.67591 11.4485,-0.96337 27.0594,-0.79238 l 24.4986,0.26834 0.3282,2.87182 c 0.1805,1.57951 -0.1798,3.37951 -0.8007,4 -0.7703,0.76979 -8.1809,1.12818 -23.3282,1.12818 -12.2096,0 -22.7691,0.3686 -23.4656,0.8191 -3.2659,2.1125 1.3144,2.6809 21.6028,2.6809 24.1136,0 25.1108,0.23629 27.7606,6.57806 2.0421,4.88748 0.063,10.34245 -4.5971,12.67039 -3.0268,1.51204 -6.5422,1.74454 -26,1.71959 -13.4171,-0.0172 -23.2064,-0.44032 -24.25,-1.04814 z"
       id="path393"
       sodipodi:nodetypes="sssssscsssssssssscssssssscssscssssssccssssssssssssssscssssssssssccsscsssssssssssssssssssssscsssscssssssssscsssssssssssssssssssssssssssssssssssssssssssssssssscscsssscsssssssssssssssssscsssscccssccssssssssssssscssscsssssssssssscsssssssss" />
    <path
       style="display:inline;fill:#ffffff;fill-opacity:0.973301"
       d="m 1529.3518,647.23126 c -1.0511,-2.73906 0.2827,-10.50177 2.161,-12.57728 1.5306,-1.69125 3.1107,-1.95942 11.5457,-1.95942 9.3663,0 9.8586,0.10952 11.845,2.63486 2.0292,2.5797 2.9816,11.12285 1.4146,12.6898 -1.2452,1.24524 -3.3245,-1.54627 -2.7769,-3.72811 0.3002,-1.19604 0.076,-3.4115 -0.4992,-4.92324 l -1.045,-2.74864 -9.2605,0.28767 -9.2604,0.28766 -0.5,5.42236 c -0.4958,5.37707 -2.4009,7.80252 -3.6243,4.61434 z m -4.663,-23.50034 c -4.6762,-0.90583 -9.4165,-5.29351 -10.7981,-9.99483 -0.5724,-1.94784 -0.8999,-7.3191 -0.7277,-11.93613 0.2493,-6.68402 0.6697,-8.6188 2.0631,-9.49488 1.2725,-0.80007 2.2275,-0.80024 3.5,-6.4e-4 1.3662,0.85847 1.8055,2.72166 2.003,8.49489 0.5227,15.27501 -0.029,14.89523 21.6273,14.89523 13.2763,0 17.6817,-0.32487 19.1708,-1.41372 1.6103,-1.17742 2.0183,-3.04055 2.4412,-11.14615 0.408,-7.82144 0.8513,-9.94815 2.2577,-10.83115 1.2719,-0.79856 2.2281,-0.798 3.5,0.002 1.4224,0.89475 1.8041,2.83184 2.0389,10.34881 0.3691,11.81339 -1.6867,16.84412 -8.1647,19.98006 -3.773,1.82648 -6.006,2.04707 -19.6899,1.94511 -8.4889,-0.0633 -17.1386,-0.44514 -19.2216,-0.84864 z m 16.224,-11.37425 c -5.2474,-2.6024 -2.184,-10.69395 3.5078,-9.2654 2.603,0.65331 4.2707,4.29728 3.2198,7.03564 -0.9729,2.53549 -4.0529,3.55628 -6.7276,2.22976 z m -35.9367,-43.70986 c 0,-1.12626 -1.1558,-3.11893 -2.5685,-4.42815 l -2.5685,-2.38041 2.1499,-1.15058 c 1.1824,-0.63282 2.7077,-2.47715 3.3894,-4.0985 1.2358,-2.93912 1.245,-2.94187 3.0736,-0.92127 1.0172,1.12399 3.0917,2.02666 4.6577,2.02666 2.6489,0 2.7531,0.15466 1.6845,2.5 -0.8576,1.88203 -0.8489,3.13696 0.035,5.07679 1.1306,2.4812 1.063,2.56513 -1.8217,2.26255 -1.7902,-0.18778 -3.8124,0.38495 -5.025,1.42321 -2.6019,2.22783 -3.0063,2.18609 -3.0063,-0.3103 z m 73.9188,0.44995 c -0.9335,-1.12485 -2.3165,-1.43706 -4.6724,-1.05475 -3.0921,0.50177 -3.2908,0.3762 -2.6143,-1.6522 0.8538,-2.56 0.8241,-4.37703 -0.1197,-7.32275 -0.5999,-1.87268 -0.3659,-2.06715 1.9541,-1.62366 1.8556,0.35472 3.358,-0.17478 5.0763,-1.78901 l 2.4406,-2.29286 0.6216,3.1082 c 0.4637,2.31814 1.412,3.38371 3.7309,4.19207 l 3.1092,1.08388 -3.2225,1.95974 c -2.2562,1.37207 -3.2226,2.71383 -3.2226,4.47444 0,2.88219 -1.1629,3.22825 -3.0812,0.9169 z m -42.563,-6.22588 c 0.5448,-3.40699 0.2469,-4.495 -1.9433,-7.09798 -2.7177,-3.22976 -2.6681,-3.31172 2.7109,-4.4821 1.6849,-0.36658 3.0699,-1.64865 3.8713,-3.58352 1.5671,-3.78319 2.4394,-3.79324 3.9915,-0.046 1.2117,2.92515 1.6888,3.21488 7.3999,4.49352 l 2.8861,0.64616 -2.6361,2.7515 c -2.0034,2.09113 -2.6361,3.77202 -2.6361,7.00349 0,4.19417 -0.03,4.23082 -2.2225,2.69529 -2.8227,-1.9771 -5.085,-1.96617 -8.971,0.0433 l -3.0941,1.60004 z"
       id="path391" />
  </g>
</svg>
