<?xml version="1.0" encoding="UTF-8" standalone="no"?>
<!-- Created with Inkscape (http://www.inkscape.org/) -->

<svg
   version="1.1"
   id="svg1"
   width="640"
   height="1136"
   viewBox="0 0 640 1136"
   sodipodi:docname="548919478_631845109768590_779718450798947577_n.jpg"
   xmlns:inkscape="http://www.inkscape.org/namespaces/inkscape"
   xmlns:sodipodi="http://sodipodi.sourceforge.net/DTD/sodipodi-0.dtd"
   xmlns="http://www.w3.org/2000/svg"
   xmlns:svg="http://www.w3.org/2000/svg">
  <defs
     id="defs1" />
  <sodipodi:namedview
     id="namedview1"
     pagecolor="#ffffff"
     bordercolor="#000000"
     borderopacity="0.25"
     inkscape:showpageshadow="2"
     inkscape:pageopacity="0.0"
     inkscape:pagecheckerboard="0"
     inkscape:deskcolor="#d1d1d1"
     showgrid="false">
    <inkscape:page
       x="0"
       y="0"
       width="640"
       height="1136"
       id="page2"
       margin="0"
       bleed="0" />
  </sodipodi:namedview>
  <g
     id="g3266"
     transform="translate(660.84615,169.30769)">
    <path
       style="fill:#e6a211"
       d="m -373.93013,678.31606 c -10.47136,-1.00196 -19.0484,-2.55427 -34.34727,-6.21632 -63.97048,-15.31242 -119.29419,-51.35182 -160.07692,-104.27854 -4.97589,-6.45759 -16.83704,-24.54175 -20.00001,-30.49314 -1.60769,-3.025 -3.14807,-5.725 -3.42307,-6 -0.84636,-0.84636 -8.69969,-17.1041 -11.83476,-24.5 -4.52949,-10.68542 -10.91379,-29.31081 -13.60311,-39.68531 -3.21184,-12.39023 -7.3889,-38.66965 -8.31531,-52.31469 -1.52035,-22.39321 0.92725,-56.91119 5.38901,-76 9.34499,-39.98079 20.97109,-67.0454 43.38643,-101 2.90469,-4.4 6.57861,-9.575 8.16427,-11.5 1.58566,-1.925 3.20885,-3.95 3.60709,-4.5 6.05432,-8.36151 16.14306,-19.03759 31.73266,-33.58002 12.56926,-11.72496 16.27921,-14.91998 17.32462,-14.91998 0.49731,0 1.41238,-0.61231 2.03348,-1.36069 1.53942,-1.85488 22.10607,-15.53827 30.11562,-20.0365 32.40055,-18.19642 61.27238,-28.47305 98,-34.8821 10.92338,-1.90616 16.15774,-2.18016 41.5,-2.17245 37.29958,0.0114 54.02422,2.23333 83.24779,11.05997 21.4789,6.48745 48.39322,18.2547 63.75221,27.8732 2.2,1.37774 4.65879,2.81814 5.46398,3.20088 3.38245,1.60783 14.14695,9.11296 22.53602,15.71238 32.12433,25.27119 59.19962,56.96049 76.985832,90.10531 15.265995,28.44837 25.943627,60.90699 31.41581,95.5 2.634049,16.65143 2.475194,61.8298 -0.283051,80.5 -4.754615,32.18338 -15.692467,63.95643 -32.875808,95.5 -2.726141,5.0044 -16.444933,26.46615 -18.737403,29.31289 -0.52578,0.65291 -4.51323,5.72771 -8.86099,11.27732 -7.46631,9.53022 -24.38147,27.2339 -34.19479,35.7888 -15.53764,13.54516 -39.11533,29.18202 -59.10547,39.1991 -30.856,15.46197 -58.43193,23.71908 -93.34413,27.9502 -12.68036,1.53677 -51.55191,1.80895 -65.65273,0.45969 z m 62.65273,-2.88997 c 9.44,-1.04324 33.86391,-5.53103 39,-7.16608 1.65,-0.52527 7.5,-2.28093 13,-3.90147 12.4644,-3.67254 15.32847,-4.71335 29,-10.53859 15.55756,-6.62886 29.95678,-14.51365 45.5,-24.91509 67.63262,-45.25938 112.514608,-119.19529 121.48825,-200.13246 5.911072,-53.31453 -3.840157,-109.28572 -27.13988,-155.78051 -6.377827,-12.72701 -20.42383,-35.50076 -26.78404,-43.4268 -17.75648,-22.128 -31.45338,-36.22153 -48.38496,-49.78607 -35.54132,-28.47351 -75.53782,-47.3944 -119.17937,-56.37943 -19.98297,-4.11414 -25.81322,-4.57191 -58,-4.55396 -28.27803,0.0158 -32.77857,0.24823 -44,2.27265 -48.93515,8.8282 -86.43169,24.94692 -124.5,53.51909 -16.22025,12.17411 -34.97888,30.11774 -46.72053,44.69069 -3.32358,4.125 -6.43361,7.65 -6.91117,7.83334 -0.47757,0.18333 -0.8683,0.91573 -0.8683,1.62755 0,0.71182 -0.6352,1.82139 -1.41156,2.46571 -0.77635,0.64432 -3.89276,4.9003 -6.92534,9.45774 -32.05936,48.17961 -47.6631,99.4555 -47.6631,156.62709 0,78.90007 30.57387,149.04953 89.34202,204.98857 4.33362,4.125 8.61701,7.91155 9.51864,8.41454 0.90163,0.503 1.86434,1.17984 2.13934,1.50409 1.52168,1.79422 15.7339,12.48895 23.5,17.68382 37.55033,25.11803 81.36128,40.68664 129.01357,45.84612 14.04454,1.52065 41.58767,1.35123 56.98643,-0.35054 z M -450.55519,448.66193 c 0.69795,-8.41633 2.25402,-9.33387 15.82955,-9.33387 9.94107,0 13.4424,0.83917 11.52045,2.76113 -0.34544,0.34543 -5.6297,0.73032 -11.74282,0.85531 -12.44528,0.25446 -12.78999,0.44636 -12.81408,7.13356 -0.0117,3.24887 -0.39783,4.25 -1.63914,4.25 -1.36267,0 -1.54826,-0.91128 -1.15396,-5.66613 z m 32.22152,4.38009 c -0.30653,-0.79879 -0.41927,-3.87371 -0.25053,-6.83316 0.22692,-3.97991 0.69732,-5.3808 1.8068,-5.3808 1.96534,0 2.20355,12.59882 0.25052,13.24983 -0.68721,0.22907 -1.50027,-0.23707 -1.80679,-1.03587 z m 19.55627,-4.16864 c 0,-5.39308 -0.0367,-5.45988 -3.25,-5.91424 -1.7875,-0.25275 -4.31337,-0.47401 -5.61304,-0.49168 -2.81253,-0.0382 -3.57217,-0.62621 -2.67808,-2.07286 0.40942,-0.66247 5.35023,-1.06654 13.04112,-1.06654 7.69088,0 12.63169,0.40407 13.04111,1.06654 1.02461,1.65785 -0.19508,2.27471 -5.06494,2.56158 -2.47157,0.1456 -4.93981,0.54039 -5.48497,0.87732 -0.54516,0.33693 -0.9912,2.83604 -0.9912,5.55358 0,3.72532 -0.36906,4.94098 -1.5,4.94098 -1.15001,0 -1.5,-1.27274 -1.5,-5.45468 z m 51.65498,3.62594 c -2.26916,-2.50739 -2.07661,-7.36553 0.4176,-10.5364 2.02189,-2.57042 2.35059,-2.63486 13.44098,-2.63486 10.54515,0 14.00435,0.81156 12.00524,2.81654 -0.37481,0.3759 -5.93237,0.90846 -12.35014,1.18346 l -11.66866,0.5 v 3.5 3.5 l 11.91944,0.5 c 8.27569,0.34715 12.04597,0.88213 12.33333,1.75 0.31626,0.95515 -2.5177,1.25 -12.01445,1.25 -10.77039,0 -12.64913,-0.24395 -14.08334,-1.82874 z m 32.59328,0.57874 c 0.29294,-0.88249 3.8455,-1.33283 12.08333,-1.53173 14.36871,-0.34694 15.83109,-2.21827 1.7335,-2.21827 -5.46419,0 -11.05068,-0.42422 -12.41443,-0.94271 -3.33289,-1.26716 -4.32426,-4.65549 -2.08581,-7.12895 1.53546,-1.69666 3.16111,-1.92834 13.53112,-1.92834 10.94262,0 14.44062,0.79309 12.42269,2.81654 -0.37488,0.3759 -5.48244,0.78461 -11.35013,0.90823 -5.8677,0.12362 -11.04353,0.23612 -11.50187,0.25 -0.45833,0.0139 -0.66276,0.53694 -0.45429,1.16237 0.25247,0.75739 3.53626,1.08633 9.83334,0.985 10.01074,-0.16107 14.16539,1.01999 14.778,4.20102 0.76436,3.96898 -1.43476,4.67684 -14.52949,4.67684 -9.52334,0 -12.36308,-0.29467 -12.04596,-1.25 z m 29.99011,0.0297 c 0.30534,-0.91978 3.70643,-1.35891 12.09322,-1.56141 6.41762,-0.15496 11.66841,-0.67873 11.66841,-1.16395 0,-0.48521 -5.21215,-1.03343 -11.58255,-1.21826 -9.87038,-0.28638 -11.78192,-0.60911 -12.93132,-2.18326 -1.50651,-2.06322 -0.99022,-4.52146 1.34473,-6.4028 1.97629,-1.59235 23.73965,-1.75394 24.71025,-0.18346 1.22135,1.97618 -0.59093,2.35789 -11.53779,2.43014 -10.10018,0.0667 -13.21966,0.62033 -11.75385,2.08613 0.32054,0.32054 5.29892,0.67675 11.06307,0.79158 11.58004,0.23068 13.99012,1.22059 13.48801,5.54002 l -0.30055,2.58559 -13.34323,0.27968 c -10.48914,0.21985 -13.25236,0.006 -12.9184,-1 z m 49.27648,-0.76326 c -2.77804,-3.0697 -2.38479,-7.87138 0.87424,-10.67468 2.49429,-2.14549 3.63464,-2.34174 13.60765,-2.34174 9.9094,0 13.49883,0.83776 11.62366,2.71293 -0.31893,0.31893 -4.90677,0.54139 -10.19522,0.49437 -12.35611,-0.10986 -14.65676,0.70483 -14.23859,5.04206 l 0.31341,3.25064 10.75,0.28384 c 6.91755,0.18264 10.75,-0.0847 10.75,-0.75 0,-0.56992 -2.35587,-1.07123 -5.25,-1.11717 -9.15947,-0.14539 -12.10986,-0.89015 -10.37985,-2.62016 0.96297,-0.96297 16.92305,-0.4033 17.95601,0.62966 0.45661,0.4566 0.68251,2.12251 0.50201,3.70201 l -0.32817,2.87182 -12.06848,0.27933 c -11.07786,0.25639 -12.22018,0.11169 -13.91667,-1.76291 z m 44.15181,1.31692 c -0.36666,-0.36667 -0.66666,-1.47061 -0.66666,-2.45321 0,-1.12325 -1.57791,-2.52475 -4.25,-3.77487 -5.80528,-2.71595 -7.98798,-4.63677 -7.58787,-6.67745 0.29187,-1.48862 0.77832,-1.35234 3.57321,1.00105 6.35424,5.35048 12.73991,5.36138 19.72491,0.0337 3.23172,-2.46495 3.53975,-2.53189 3.53975,-0.76926 0,2.1822 -4.91081,6.19139 -8.86983,7.24134 -1.88433,0.49973 -2.7199,1.45862 -2.9466,3.38147 -0.31043,2.63314 -1.19337,3.3408 -2.51691,2.01727 z m 19.33334,-5.62756 c 0,-9.99335 1.62272,-10.4869 8.85682,-2.69383 l 5.82928,6.2797 3.40695,-3.7998 c 5.64603,-6.29707 7.95074,-8.49185 8.91722,-8.49185 1.82378,0 3.08619,4.16198 2.79095,9.20137 -0.34302,5.85489 -2.79122,8.14266 -2.81654,2.63197 -0.0292,-6.36643 -1.4435,-6.72973 -6.00859,-1.54352 -2.28034,2.5906 -5.01897,4.71018 -6.08586,4.71018 -1.06688,0 -3.81376,-2.025 -6.10417,-4.5 -2.29041,-2.475 -4.50339,-4.5 -4.91773,-4.5 -0.41434,0 -0.89171,1.87753 -1.06084,4.17228 -0.16912,2.29476 -0.86999,4.35726 -1.55749,4.58334 -0.91344,0.30037 -1.25,-1.32857 -1.25,-6.04984 z m -271.01304,0.28617 c -2.46639,-1.52432 -0.64026,-1.95159 8.88869,-2.07975 8.85755,-0.11913 11.23861,0.30688 9.79333,1.75216 -1.0357,1.03569 -17.08103,1.31705 -18.68202,0.32759 z m 100.53556,0.0445 c -1.37756,-2.22894 0.83502,-2.84117 9.728,-2.6918 7.48604,0.12573 9.24948,0.44133 9.24948,1.65535 0,1.20344 -1.8127,1.55664 -9.16846,1.78645 -5.56147,0.17376 -9.42046,-0.1213 -9.80902,-0.75 z m 34.26014,-19.61411 c -0.83542,-1.83353 -0.86993,-3.06043 -0.11958,-4.25 1.48682,-2.3571 6.28827,-2.13124 7.95172,0.37404 1.15875,1.74518 1.13156,2.37072 -0.18474,4.25 -2.16661,3.09328 -6.1565,2.89813 -7.6474,-0.37404 z m -264.67302,0.19161 c -7.04606,-3.93385 -9.44932,-16.70653 -4.51088,-23.97411 4.18482,-6.1585 6.44432,-6.63984 31.16912,-6.63984 15.6472,0 22.17207,0.33996 23.03212,1.2 1.71443,1.71444 1.48244,5.47764 -0.38179,6.19302 -0.86999,0.33384 -11.41232,0.60698 -23.42742,0.60698 h -21.84563 l -2.1678,2.75 c -1.67496,2.12481 -2.04992,3.63382 -1.64928,6.63759 0.93477,7.00853 1.18126,7.08133 24.95545,7.37029 25.43407,0.30913 25.94883,0.39033 25.52952,4.027 l -0.31305,2.71512 -24,0.22425 c -18.48832,0.17275 -24.54896,-0.0822 -26.39036,-1.1103 z m 60.63927,-1.14595 c -6.53721,-6.06164 -7.90263,-15.61512 -3.23899,-22.66235 4.04511,-6.11259 6.79546,-6.80565 27.00762,-6.80565 19.79584,0 21.70968,0.49723 25.95378,6.74299 1.92133,2.8275 2.52868,4.99845 2.52868,9.03881 0,6.16034 -1.67103,9.92216 -6.04081,13.59909 l -3.11265,2.61911 h -20.18349 -20.18349 z m 40.04113,-5.10875 c 2.63865,-0.70684 5.20996,-5.07713 5.20996,-8.85504 0,-1.42731 -1.10455,-3.69966 -2.45455,-5.04966 -2.41787,-2.41787 -2.71439,-2.45455 -19.84501,-2.45455 -15.53179,0 -17.56608,0.19406 -19.03358,1.81562 -3.75441,4.14858 -2.84225,12.37581 1.56859,14.14784 2.54229,1.02135 31.00241,1.34733 34.55459,0.39579 z m 20.32683,6.01006 c -3.68487,-2.58098 -5.11687,-7.40196 -5.11687,-17.2264 0,-7.13187 0.36445,-9.37143 1.817,-11.16524 1.54701,-1.91048 2.14138,-2.0703 4,-1.0756 2.02797,1.08533 2.183,1.90276 2.183,11.51067 0,7.38129 0.38046,10.65813 1.32886,11.44523 0.85797,0.71206 9.23548,1.19839 23.64179,1.37245 19.55037,0.23621 22.44297,0.47587 23.36315,1.93576 0.76178,1.20857 0.68921,2.10117 -0.26424,3.25 -1.13153,1.36342 -4.60633,1.58382 -24.9695,1.58382 -20.25084,0 -23.9901,-0.23467 -25.98319,-1.63069 z m 118.08313,0.43069 c -0.81239,-0.81238 -1.2,-5.47301 -1.2,-14.42857 0,-10.69264 0.30124,-13.52981 1.57142,-14.8 0.86429,-0.86428 1.90813,-1.57143 2.31964,-1.57143 0.41152,0 3.64187,2.24337 7.17857,4.98526 7.29603,5.65638 13.22105,8.03458 19.8585,7.97085 6.46193,-0.062 10.92281,-1.91496 18.96697,-7.87834 5.99049,-4.44093 7.30979,-5.03848 9.0583,-4.1027 1.90996,1.02217 2.0466,2.01431 2.0466,14.86012 0,14.18205 -0.51086,16.16481 -4.16482,16.16481 -2.71329,0 -3.83518,-3.19858 -3.83518,-10.93425 0,-7.6821 -0.53456,-8.24543 -4.88485,-5.14774 -4.19481,2.98696 -14.78201,5.3732 -21.03227,4.74043 -3.03998,-0.30777 -8.14027,-1.88903 -11.62272,-3.60343 -3.41308,-1.68025 -6.48787,-3.05501 -6.83288,-3.05501 -0.34501,0 -0.62728,3.17959 -0.62728,7.06575 0,3.88615 -0.46584,7.93615 -1.03519,9 -1.16668,2.17996 -3.96295,2.53612 -5.76481,0.73425 z m 67.54997,0.11989 c -2.70571,-1.57593 -4.75154,-6.38093 -4.73466,-11.12023 0.0268,-7.52527 -0.79756,-7.27457 24.69778,-7.51067 12.5328,-0.11606 23.1574,-0.22856 23.61023,-0.25 0.45283,-0.0214 0.67209,-0.82649 0.48726,-1.78899 -0.30531,-1.58985 -2.47506,-1.79575 -23.70982,-2.25 -23.02286,-0.49249 -23.38608,-0.53334 -24.19445,-2.72138 -0.57494,-1.55619 -0.34807,-2.69401 0.75764,-3.79972 1.36704,-1.36704 4.76452,-1.53821 25.37864,-1.27861 23.58193,0.29696 23.82381,0.32182 26.36354,2.70965 2.94353,2.76747 4.25828,7.98007 2.73207,10.83183 -0.73229,1.3683 -0.7154,3.02591 0.0565,5.54087 0.8404,2.73829 0.79597,4.32572 -0.18752,6.70009 -2.29237,5.53427 -4.58372,6.02059 -28.20749,5.98687 -12.59868,-0.018 -22.01456,-0.4468 -23.04969,-1.04971 z m 43.75003,-8.41989 c 0,-1.92202 -0.75741,-2.01061 -19.42779,-2.27221 -11.40142,-0.15975 -19.82233,0.12233 -20.38278,0.68278 -0.52525,0.52525 -0.68071,1.66979 -0.34546,2.54343 0.53344,1.39012 3.07827,1.55458 20.38278,1.31722 19.01617,-0.26083 19.77325,-0.34779 19.77325,-2.27122 z m 18.10695,7.40548 c -4.84527,-3.81129 -6.60695,-8.83227 -6.60695,-18.83045 0,-8.14664 0.20168,-9.1126 2.11666,-10.13746 3.81976,-2.04428 5.33494,0.89008 5.73305,11.1029 0.32285,8.28192 0.55069,9.12933 2.9652,11.02858 2.4454,1.92356 3.71281,2.03697 19.49078,1.74415 20.79444,-0.38593 20.69431,-0.32132 20.69431,-13.35255 0,-6.32611 0.387,-8.70479 1.61622,-9.93402 1.41168,-1.41167 1.88629,-1.43746 3.75,-0.20381 1.78974,1.18469 2.18109,2.55945 2.42722,8.52661 0.38265,9.27693 -0.98338,14.00967 -5.33776,18.49324 l -3.55196,3.65733 h -20.317 c -19.10845,0 -20.4754,-0.12459 -22.97977,-2.09452 z m 58.32348,0.5107 c -0.95317,-1.14849 -1.02593,-2.04179 -0.26475,-3.25 0.91534,-1.4529 4.044,-1.73018 24.44201,-2.16618 22.558972,-0.48218 23.392305,-0.57124 23.392305,-2.5 0,-1.92665 -0.833333,-2.01833 -22.724555,-2.5 -21.40995,-0.47107 -22.84608,-0.62167 -24.82547,-2.60325 -1.15551,-1.15679 -2.34952,-3.95672 -2.65337,-6.22207 -0.49921,-3.72189 -0.21246,-4.45882 2.97547,-7.64675 l 3.52793,-3.52793 h 24.06481 c 23.041362,0 24.11034,0.0851 25.135185,2 0.76049,1.42099 0.76049,2.57902 0,4 -1.023681,1.91277 -2.093823,2 -24.535185,2 -22.35609,0 -23.46481,0.0894 -23.46481,1.89302 0,1.04115 0.66648,2.14876 1.48107,2.46135 0.8146,0.31259 10.97639,0.47323 22.58176,0.35699 l 21.100677,-0.21136 2.918244,3.26578 c 3.927683,4.39543 3.933574,8.9358 0.01703,13.12847 l -2.901209,3.10575 h -24.476342 c -21.11253,0 -24.65699,-0.21766 -25.7908,-1.58382 z"
       id="path3268" />
    <path
       style="fill:#9c6b16"
       d="m -372.2774,679.69448 c -11.12594,-1.08923 -31.40603,-4.87535 -42.8637,-8.00229 -45.05337,-12.29559 -80.93108,-31.57532 -116.1363,-62.40858 -14.57525,-12.76521 -36.92446,-36.95555 -34.14287,-36.95555 0.23513,0 3.57116,3.7125 7.41339,8.25 38.12502,45.02391 91.4173,77.59541 149.72948,91.51258 25.01771,5.97089 36.16956,7.1788 66.5,7.20293 47.83957,0.0381 85.56427,-8.70203 126.84413,-29.3874 19.99014,-10.01708 43.56783,-25.65394 59.10547,-39.1991 9.81332,-8.5549 26.72848,-26.25858 34.19479,-35.7888 4.34776,-5.54961 8.33521,-10.62441 8.86099,-11.27732 2.29247,-2.84674 16.011262,-24.30849 18.737403,-29.31289 17.183341,-31.54357 28.121193,-63.31662 32.875808,-95.5 2.758245,-18.6702 2.9171,-63.84857 0.283051,-80.5 -9.896344,-62.56083 -36.43834,-116.49042 -77.700872,-157.87718 -6.98543,-7.00646 -14.72577,-14.51856 -17.20077,-16.69357 -10.75018,-9.44714 -30.53527,-24.13219 -36.03602,-26.74694 -0.80519,-0.38274 -3.26398,-1.82314 -5.46398,-3.20088 -15.35899,-9.6185 -42.27331,-21.38575 -63.75221,-27.8732 -29.22357,-8.82664 -45.94821,-11.04861 -83.24779,-11.05997 -25.34226,-0.008 -30.57662,0.26629 -41.5,2.17245 -36.72762,6.40905 -65.59945,16.68568 -98,34.8821 -8.00955,4.49823 -28.5762,18.18162 -30.11562,20.0365 -0.6211,0.74838 -1.53617,1.36069 -2.03348,1.36069 -1.04541,0 -4.75536,3.19502 -17.32462,14.91998 -15.5896,14.54243 -25.67834,25.21851 -31.73266,33.58002 -0.39824,0.55 -2.02143,2.575 -3.60709,4.5 -1.58566,1.925 -5.25958,7.1 -8.16427,11.5 -22.41534,33.9546 -34.04144,61.01921 -43.38643,101 -4.46176,19.08881 -6.90936,53.60679 -5.38901,76 0.92641,13.64504 5.10347,39.92446 8.31531,52.31469 2.68932,10.3745 9.07362,28.99989 13.60311,39.68531 3.13507,7.3959 10.9884,23.65364 11.83476,24.5 0.275,0.275 1.81588,2.975 3.42419,6 2.75924,5.18975 16.00399,25.26019 20.6223,31.25 1.16617,1.5125 1.74529,2.73245 1.28691,2.711 -0.45837,-0.0214 -2.32633,-2.06789 -4.15102,-4.54765 -43.38586,-58.96159 -62.78783,-129.47446 -55.14473,-200.41335 6.38366,-59.24946 32.21357,-116.20548 72.78777,-160.49998 28.16442,-30.74685 59.7932,-52.9851 101.67458,-71.48757 17.83223,-7.87797 47.87652,-16.01918 70.13286,-19.00416 17.12501,-2.29677 51.83058,-2.75686 69.36714,-0.91959 51.96193,5.44395 104.50103,26.85346 146.22067,59.58443 18.31197,14.36659 37.20094,33.88188 52.58329,54.32687 11.85213,15.75291 27.067387,42.44212 34.490456,60.5 7.757738,18.87203 14.571397,43.99074 18.734638,69.0657 2.901838,17.47759 3.21003,57.92506 0.574777,75.4343 -4.916852,32.66874 -12.729738,58.70254 -25.659019,85.5 -15.335052,31.78371 -31.246832,53.97338 -57.377872,80.01593 -22.68015,22.60336 -45.30069,38.82839 -73.06694,52.40871 -23.61762,11.55125 -31.51484,14.53085 -55.5,20.94005 -23.41553,6.25698 -33.41169,7.39957 -67,7.65835 -16.775,0.12924 -32.3,0.0588 -34.5,-0.15662 z m 4,-3.9159 c -7.15,-0.77228 -17.95,-2.32712 -24,-3.45519 -12.36879,-2.30628 -31.23166,-7.25144 -29.65924,-7.77558 0.56614,-0.18872 4.09607,0.55486 7.84429,1.65238 23.75388,6.95542 47.17041,9.55406 79.63867,8.83788 24.24386,-0.53477 33.54856,-1.54807 52.55601,-5.72343 5.15885,-1.13325 9.58026,-1.85992 9.82536,-1.61482 0.24509,0.2451 -0.37579,0.68946 -1.37973,0.98748 -4.61086,1.36872 -29.73479,5.84468 -37.82536,6.73879 -15.38757,1.70053 -42.94179,1.87092 -57,0.35249 z m 99,-9.38417 c 1.1,-0.44379 3.575,-1.08632 5.5,-1.42785 l 3.5,-0.62097 -3.5,1.41516 c -1.925,0.77834 -4.4,1.42087 -5.5,1.42785 l -2,0.0127 z m -166,-5.45873 c -22.7883,-8.27868 -43.53575,-18.65413 -62,-31.00517 -7.7661,-5.19487 -21.97832,-15.8896 -23.5,-17.68382 -0.275,-0.32425 -1.23771,-1.00109 -2.13934,-1.50409 -0.90163,-0.50299 -5.18502,-4.28954 -9.51864,-8.41454 -21.29746,-20.27219 -39.04335,-42.37294 -51.38907,-64 -8.28529,-14.51404 -10.74934,-19.61022 -8.9415,-18.49292 0.5437,0.33603 0.98855,1.05001 0.98855,1.58663 0,2.79587 16.36642,29.47397 25.40184,41.40629 8.41561,11.1138 8.00526,10.62303 18.73914,22.41166 21.30122,23.39437 45.08277,41.91897 73.85902,57.53237 13.49362,7.32136 24.02363,11.80295 49,20.85447 1.33333,0.48321 1.33333,0.54556 0,0.56115 -0.825,0.01 -5.55,-1.45376 -10.5,-3.25203 z m 181.5,0.85688 c 6.74651,-2.52351 9.77331,-3.14544 6.75718,-1.38842 -1.99515,1.16226 -10.75895,3.92284 -12.25718,3.861 -0.55,-0.0227 1.925,-1.13537 5.5,-2.47258 z m 11.5,-3.97487 c 1.65,-0.76036 7.5,-3.30452 13,-5.6537 33.725,-14.40471 69.19816,-39.76049 92.80503,-66.33593 4.39707,-4.95 9.21271,-10.3796 10.70143,-12.06577 16.97537,-19.22695 39.063646,-58.53554 48.131383,-85.65527 2.339371,-6.99657 4.438178,-12.53626 4.664017,-12.31043 1.180922,1.18093 -8.620863,26.94267 -16.463492,43.27052 -23.774148,49.49622 -66.214858,95.0063 -112.338368,120.46283 -3.575,1.97311 -8.68335,4.79993 -11.35188,6.28181 -6.02494,3.34576 -29.55124,13.5393 -31.0475,13.45236 -0.60534,-0.0352 0.24938,-0.68607 1.89938,-1.44642 z M -596.85001,513.7196 c -4.85428,-11.18524 -8.92401,-21.72825 -8.53684,-22.11543 0.22776,-0.22776 1.31378,1.97944 2.41338,4.90489 1.0996,2.92545 3.62444,8.87561 5.61076,13.22258 1.98632,4.34696 3.39191,8.12315 3.12353,8.39153 -0.26838,0.26838 -1.44325,-1.71323 -2.61083,-4.40357 z m -11.7695,-30.54943 c -1.18654,-3.94679 -1.98356,-7.34977 -1.77116,-7.56217 0.2124,-0.21241 1.36469,2.83531 2.56063,6.7727 1.19595,3.93738 1.99297,7.34036 1.77116,7.56217 -0.2218,0.22181 -1.37409,-2.82591 -2.56063,-6.7727 z m -4.15789,-13.84211 c -0.67396,-2.80937 -1.02653,-5.3068 -0.78349,-5.54984 0.24304,-0.24305 0.97638,1.87362 1.62964,4.70369 0.65326,2.83007 1.00583,5.32751 0.78348,5.54985 -0.22234,0.22234 -0.95568,-1.89432 -1.62963,-4.7037 z m 540.499584,3 c 0.263096,-1.375 1.638238,-7.63758 3.055872,-13.91685 1.417634,-6.27927 3.174245,-15.50427 3.90358,-20.5 0.840324,-5.75597 1.362239,-7.61794 1.424822,-5.08315 0.110552,4.47768 -4.994197,30.5494 -7.342365,37.5 -0.836145,2.475 -1.305004,3.375 -1.041909,2 z m -542.499584,-11 c 0,-0.73333 0.3,-1.03333 0.66666,-0.66666 0.36667,0.36666 0.36667,0.96666 0,1.33333 -0.36666,0.36667 -0.66666,0.0667 -0.66666,-0.66667 z m -2.46375,-11.44111 c -0.9431,-5.23789 -1.53302,-10.06859 -1.31093,-10.73487 0.2221,-0.66628 1.17583,3.43717 2.11942,9.11878 0.94358,5.6816 1.5335,10.5123 1.31093,10.73487 -0.22258,0.22257 -1.17631,-3.88088 -2.11942,-9.11878 z m 166.16498,4.80902 c -0.38568,-0.38568 -0.70123,-2.91085 -0.70123,-5.6115 0,-4.09379 0.48604,-5.39629 2.92307,-7.83333 2.85941,-2.85941 3.15166,-2.92308 13.41821,-2.92308 5.77233,0 11.20694,0.27315 12.07693,0.60699 2.30894,0.88603 1.93256,3.3222 -0.66821,4.32508 -1.99913,0.77087 -2.05488,0.94646 -0.5,1.57476 0.9625,0.38893 1.75,1.55901 1.75,2.60016 0,1.49978 -0.67513,1.86189 -3.25,1.74318 -3.02494,-0.13945 -3.05956,-0.17868 -0.5,-0.56642 1.5125,-0.22913 2.75,-0.8367 2.75,-1.35017 0,-1.0186 -1.92318,-1.16248 -12.4916,-0.93452 -7.4958,0.16168 -8.80015,0.57234 -6.47944,2.04 1.26765,0.80169 1.25212,0.93244 -0.1123,0.94563 -2.38455,0.0231 -2.96435,-1.02707 -1.78438,-3.23187 0.82886,-1.54872 0.76626,-1.88694 -0.28518,-1.54097 -0.78488,0.25825 -1.55579,2.49406 -1.8471,5.35702 -0.47639,4.68166 -2.33795,6.75986 -4.29877,4.79904 z m 3.31408,-4.61791 c 0.021,-5.8352 1.05977,-7.18498 4.93318,-6.4103 2.21494,0.44299 2.94333,0.29429 2.45206,-0.5006 -0.48111,-0.77846 0.0487,-0.93199 1.70029,-0.49276 6.51457,1.73248 7.43096,1.84987 5.89916,0.75572 -1.82704,-1.30503 -0.0847,-1.44134 1.95225,-0.15273 0.79874,0.50529 1.92374,0.62392 2.5,0.26362 0.57626,-0.3603 1.92042,-0.79078 2.98702,-0.95663 2.46664,-0.38354 2.9238,-0.85983 2.10184,-2.18978 -0.40119,-0.64915 -4.89751,-1.06654 -11.48935,-1.06654 -13.57553,0 -15.1316,0.91754 -15.82955,9.33387 -0.3943,4.75485 -0.20871,5.66613 1.15396,5.66613 1.24131,0 1.62743,-1.00113 1.63914,-4.25 z m 28.98469,4.46429 c 0,-0.43214 0.9,-0.78571 2,-0.78571 1.1,0 2,0.35357 2,0.78571 0,0.43214 -0.9,0.78571 -2,0.78571 -1.1,0 -2,-0.35357 -2,-0.78571 z m 19.43716,-0.51744 c -0.30623,-0.79803 -0.38599,-3.64379 -0.17723,-6.32391 l 0.37957,-4.87294 0.18025,5.75 c 0.13383,4.2692 0.55308,5.75 1.62799,5.75 1.03805,0 1.53327,-1.46342 1.75,-5.17139 0.20531,-3.51273 0.78336,-5.32896 1.80226,-5.66262 1.19662,-0.39188 1.26109,-0.20156 0.31875,0.94101 -0.64968,0.78773 -1.32468,3.44453 -1.5,5.904 -0.23605,3.31156 -0.77358,4.55803 -2.07178,4.80428 -0.96416,0.1829 -2.00358,-0.3204 -2.30981,-1.11843 z m 17.96099,-0.10165 c -0.29649,-0.77264 -0.38173,-2.91014 -0.18942,-4.75 0.30656,-2.933 0.40855,-2.7599 0.82766,1.4048 0.49022,4.87125 0.30994,5.81612 -0.63824,3.3452 z m 3.60185,0.9048 c 0,-0.275 0.225,-0.5 0.5,-0.5 0.275,0 0.5,0.225 0.5,0.5 0,0.275 -0.225,0.5 -0.5,0.5 -0.275,0 -0.5,-0.225 -0.5,-0.5 z m 21,-0.55901 c 0,-0.58246 0.45,-0.7809 1,-0.44099 0.55,0.33992 1,0.81648 1,1.05902 0,0.24254 -0.45,0.44098 -1,0.44098 -0.55,0 -1,-0.47655 -1,-1.05901 z m 3.98173,-4.2393 0.48173,-5.20169 0.3324,4.38587 c 0.18283,2.41222 -0.034,4.75298 -0.48173,5.20168 -0.44777,0.44871 -0.59736,-1.52493 -0.3324,-4.38586 z m 5.08459,3.13913 c -2.9179,-3.13199 -2.69112,-8.05446 0.53142,-11.53505 l 2.59774,-2.80577 -2.09774,2.88486 c -2.59724,3.57178 -2.72405,8.73837 -0.269,10.96016 2.60125,2.3541 26.70906,2.49887 25.80963,0.15498 -0.31658,-0.825 -0.10673,-1.5 0.46633,-1.5 0.57307,0 0.89093,0.7875 0.70636,1.75 -0.29511,1.53889 -1.86426,1.78371 -13.007,2.02939 -11.98356,0.26421 -12.78358,0.15898 -14.73774,-1.93857 z m 31.93368,0.24252 c 0,-1.05417 0.5625,-2.15305 1.25,-2.44196 0.91341,-0.38385 0.80883,-0.80675 -0.38839,-1.57056 -2.88433,-1.84017 -3.24091,-6.03817 -0.73909,-8.70124 2.0951,-2.23013 2.90731,-2.36867 13.80179,-2.35426 6.36663,0.008 12.20376,0.413 12.9714,0.89907 1.84821,1.17028 0.64984,4.11705 -1.61433,3.96961 -1.68302,-0.10959 -1.68169,-0.14184 0.024,-0.58398 0.99294,-0.25739 1.63118,-0.99269 1.4183,-1.634 -0.25894,-0.78012 -4.35408,-1.25846 -12.37381,-1.44534 -10.83406,-0.25246 -12.15715,-0.0911 -13.75843,1.67834 -2.26424,2.50195 -1.29117,5.88443 2.05927,7.15827 1.36375,0.51849 6.95024,0.94271 12.41443,0.94271 14.09759,0 12.63521,1.87133 -1.7335,2.21827 -8.23783,0.1989 -11.79039,0.64924 -12.08333,1.53173 -0.31712,0.95533 2.52262,1.25 12.04596,1.25 13.09473,0 15.29385,-0.70786 14.52949,-4.67684 -0.61261,-3.18103 -4.76726,-4.36209 -14.778,-4.20102 -6.29708,0.10133 -9.58087,-0.22761 -9.83334,-0.985 -0.43819,-1.31459 -0.43714,-1.3147 10.78763,-1.14571 6.3274,0.0953 9.3153,0.60621 11.68975,1.99901 2.26567,1.32898 3.32919,1.52896 3.67105,0.69029 0.3447,-0.8456 0.50371,-0.81892 0.56025,0.094 0.14178,2.28933 5.40026,3.41386 15.32895,3.27812 5.97607,-0.0817 9.75,0.25706 9.75,0.87519 0,0.60425 -4.67701,1.1214 -11.66841,1.29021 -8.38679,0.2025 -11.78788,0.64163 -12.09322,1.56141 -0.33396,1.00595 2.42926,1.21985 12.9184,1 l 13.34323,-0.27968 0.30055,-2.58559 c 0.50211,-4.31943 -1.90797,-5.30934 -13.48801,-5.54002 -5.76415,-0.11483 -10.767,-0.49551 -11.11745,-0.84595 -1.4347,-1.4347 2.5434,-2.33654 8.72713,-1.97844 8.31421,0.48147 15.28565,-0.42352 14.7907,-1.92004 -0.23393,-0.70727 -4.64543,-1.33589 -11.79332,-1.68049 l -11.4196,-0.55053 10.66821,-0.19947 c 5.86751,-0.10971 11.38001,0.0737 12.25,0.40752 2.25949,0.86705 1.9537,3.31988 -0.52836,4.23806 -2.06837,0.76514 -2.05848,0.81445 0.5,2.49083 1.77633,1.16389 2.61015,2.59733 2.61015,4.48718 0,4.74394 -1.31317,5.17694 -15.7,5.17694 -12.44058,0 -13.3,-0.12385 -13.3,-1.91666 0,-1.05417 0.52967,-2.09323 1.17705,-2.30902 0.64737,-0.21579 0.84582,-0.92829 0.44098,-1.58333 -1.20667,-1.95243 -2.61803,-1.35457 -2.61803,1.10901 0,4.22007 -1.60318,4.7 -15.7,4.7 -12.44058,0 -13.3,-0.12385 -13.3,-1.91666 z m 6,-9.58334 c 0,-0.275 -0.225,-0.5 -0.5,-0.5 -0.275,0 -0.5,0.225 -0.5,0.5 0,0.275 0.225,0.5 0.5,0.5 0.275,0 0.5,-0.225 0.5,-0.5 z m 73.42903,9.03205 c -0.88938,-1.35738 -1.38528,-3.04488 -1.102,-3.75 0.34925,-0.8693 0.54049,-0.76855 0.59402,0.31297 0.0434,0.87725 0.91824,2.35456 1.94404,3.2829 1.57153,1.42221 3.73583,1.64336 13.75,1.40499 l 11.88491,-0.28291 0.32817,-2.87182 c 0.1805,-1.5795 -0.0454,-3.24541 -0.50201,-3.70201 -1.03296,-1.03296 -16.99304,-1.59263 -17.95601,-0.62966 -1.73001,1.73001 1.22038,2.47477 10.37985,2.62016 2.8875,0.0458 5.25,0.53333 5.25,1.08333 0,0.58504 -3.38889,1 -8.16667,1 -4.49167,0 -7.87057,-0.29609 -7.50868,-0.65799 0.3619,-0.36189 0.14097,-1.28096 -0.49095,-2.04238 -0.86572,-1.04313 -0.86358,-1.66975 0.009,-2.54201 1.62416,-1.62416 1.44281,-2.54583 -0.59238,-3.01066 -0.9625,-0.21984 1.82173,-0.48059 6.18719,-0.57946 4.36545,-0.0989 8.19045,0.17089 8.5,0.59947 0.30954,0.42858 1.80031,1.56671 3.31281,2.52918 1.91968,1.22159 2.75,2.58841 2.75,4.52691 0,4.69117 -1.3772,5.17694 -14.67695,5.17694 -11.94942,0 -12.32009,-0.0658 -13.89402,-2.46795 z m 18.82097,-9.19433 c -0.6875,-0.27741 -1.8125,-0.27741 -2.5,0 -0.6875,0.27742 -0.125,0.50439 1.25,0.50439 1.375,0 1.9375,-0.22697 1.25,-0.50439 z m 25.3262,10.48619 c -0.22976,-0.72815 -0.5659,-1.87593 -0.74698,-2.55063 -0.18107,-0.6747 -2.79826,-2.70071 -5.81596,-4.50225 -5.30522,-3.16716 -7.19201,-5.99229 -5.27937,-7.90492 0.56194,-0.56194 2.4079,0.25983 4.73128,2.10622 5.09166,4.04634 12.22241,4.26608 17.12371,0.52767 4.24468,-3.23757 5.83253,-3.25019 1.91112,-0.0152 -6.37134,5.25609 -13.48711,5.22999 -19.78442,-0.0726 -2.78063,-2.34139 -3.26129,-2.47455 -3.55345,-0.98442 -0.39874,2.0337 1.78019,3.95973 7.52054,6.64767 2.71453,1.27109 4.29407,2.71486 4.5,4.11321 0.47489,3.22452 2.62272,3.35837 2.99518,0.18666 0.23633,-2.01243 1.04761,-2.93567 3.04536,-3.46564 3.73746,-0.99147 8.16441,-4.61978 8.81949,-7.22842 0.38632,-1.53838 0.76845,-1.79586 1.32612,-0.89352 0.96848,1.56702 -4.53519,6.94663 -9.04711,8.84318 -2.00858,0.84429 -3.29668,2.16636 -3.5,3.59229 -0.35452,2.48642 -3.58205,3.70328 -4.24551,1.60067 z m 19.4238,-5.68293 c 0,-5.02484 0.44254,-7.44066 1.56944,-8.56756 2.03907,-2.03907 4.01966,-0.98318 9.2045,4.90711 2.18801,2.48571 4.44396,4.51947 5.01323,4.51947 0.56927,0 2.21853,-1.4065 3.66503,-3.12556 1.4465,-1.71907 2.81249,-2.94308 3.03554,-2.72002 0.22305,0.22305 -1.2258,2.13469 -3.21967,4.24809 l -3.62522,3.84254 -5.80765,-6.2564 c -4.89832,-5.27679 -6.04468,-6.05969 -7.32143,-5.00008 -1.96692,1.6324 -2.2117,14.40761 -0.26377,13.76705 0.6875,-0.22608 1.38837,-2.28858 1.55749,-4.58334 0.16913,-2.29475 0.6465,-4.17228 1.06084,-4.17228 0.41434,0 2.62732,2.025 4.91773,4.5 2.29041,2.475 5.03729,4.5 6.10417,4.5 1.06689,0 3.80552,-2.11958 6.08586,-4.71018 4.56948,-5.1912 5.97944,-4.82345 6.00859,1.56717 0.0117,2.56968 0.36711,3.222 1.51532,2.78139 0.825,-0.31658 1.5,-0.13973 1.5,0.39301 0,0.53274 -0.9,0.96861 -2,0.96861 -1.61252,0 -2,-0.66666 -2,-3.44098 0,-1.89254 -0.40101,-3.68881 -0.89112,-3.99172 -0.49011,-0.30291 -2.51394,1.24553 -4.4974,3.44098 -4.69131,5.19272 -7.29536,5.19092 -11.99252,-0.008 -1.98757,-2.2 -3.81277,-4 -4.056,-4 -0.24323,0 -0.5819,1.6875 -0.7526,3.75 -0.2493,3.01222 -0.75304,3.81287 -2.56036,4.06955 -2.14944,0.30527 -2.25,0.007 -2.25,-6.67857 z m 31.28601,-0.64098 c 0.008,-2.75 0.20171,-3.75631 0.43157,-2.23625 0.22985,1.52007 0.22371,3.77007 -0.0136,5 -0.23737,1.22994 -0.42543,-0.0138 -0.41792,-2.76375 z m -215.12812,1.5 c 0,-1.375 0.22697,-1.9375 0.50439,-1.25 0.27741,0.6875 0.27741,1.8125 0,2.5 -0.27742,0.6875 -0.50439,0.125 -0.50439,-1.25 z m 11.23164,0.57273 c -0.30123,-0.785 -0.39961,-2.4725 -0.21862,-3.75 0.31669,-2.23527 0.71373,-2.33344 10.54448,-2.60733 9.27929,-0.25852 10.4093,-0.0907 12.33136,1.83136 2.01613,2.01613 2.03404,2.20648 0.37962,4.0346 -1.49929,1.6567 -3.15301,1.91864 -12.11275,1.91864 -8.06598,0 -10.49834,-0.31779 -10.92409,-1.42727 z m 2.13718,-1.48857 c -0.33444,-1.05371 -0.19057,-2.17387 0.3197,-2.48924 0.51028,-0.31536 0.86608,0.20927 0.79068,1.16585 -0.12138,1.53988 0.9518,1.73923 9.36291,1.73923 7.77777,0 9.5,-0.27193 9.5,-1.5 0,-1.19271 -1.55253,-1.52018 -7.57851,-1.59855 -4.16818,-0.0542 -8.79056,-0.40275 -10.27196,-0.77456 -2.89942,-0.72771 -4.38285,1.01975 -3.28791,3.87311 0.84462,2.20105 1.87853,1.83202 1.16509,-0.41584 z m 109.86282,1.48857 c -0.89924,-2.34337 0.004,-5.8873 1.61047,-6.32053 1.23465,-0.33291 1.25592,-0.23369 0.12024,0.56089 -0.86806,0.60733 -1.21044,2.11902 -0.9232,4.07613 0.4825,3.28747 0.10778,4.06871 -0.80751,1.68351 z m -206.0562,-1.23939 c 0.36667,-0.36667 0.96667,-0.36667 1.33333,0 0.36667,0.36666 0.0667,0.66666 -0.66666,0.66666 -0.73334,0 -1.03334,-0.3 -0.66667,-0.66666 z m 62.66667,-3.27432 c 0,-0.51754 0.44484,-1.21591 0.98854,-1.55194 0.56686,-0.35034 0.73451,0.0511 0.39301,0.94099 -0.66479,1.73241 -1.38155,2.04938 -1.38155,0.61095 z m 139.06338,-0.19823 c -0.0349,-0.90157 0.79588,-2.70157 1.84609,-4 1.78497,-2.20686 2.68148,-2.37904 13.75,-2.64074 6.51229,-0.15397 12.4686,0.13812 13.23624,0.64908 1.83966,1.22452 0.65819,4.16286 -1.61433,4.01487 -1.68302,-0.10959 -1.68169,-0.14184 0.0239,-0.58398 0.99294,-0.25739 1.63133,-0.99269 1.41865,-1.634 -0.25456,-0.76758 -4.07389,-1.26342 -11.17734,-1.45109 -11.64298,-0.30758 -14.74657,0.64831 -16.53705,5.09337 -0.62097,1.54162 -0.90162,1.70549 -0.94621,0.55249 z m -143.06338,-0.86079 c 0,-0.73333 0.3,-1.03333 0.66666,-0.66666 0.36667,0.36666 0.36667,0.96666 0,1.33333 -0.36666,0.36667 -0.66666,0.0667 -0.66666,-0.66667 z m 22,0 c -0.9013,-0.58246 -1.02464,-0.97548 -0.30902,-0.98468 0.65504,-0.008 1.4691,0.43468 1.80902,0.98468 0.7673,1.24153 0.42112,1.24153 -1.5,0 z m 3.60595,-2.84794 -1.89405,-2.65206 2.33849,2.22223 c 1.28617,1.22222 2.13849,2.41565 1.89405,2.65206 -0.24444,0.23641 -1.29677,-0.76359 -2.33849,-2.22223 z m 68.45743,1.72039 c -0.072,-1.84973 2.65256,-4.48983 3.62745,-3.51495 0.35337,0.35338 0.103,0.6425 -0.55639,0.6425 -0.65939,0 -1.60587,1.0125 -2.10328,2.25 -0.61202,1.52262 -0.92488,1.72384 -0.96778,0.62245 z m -124.74049,-1.47337 c -1.0407,-2.71203 1.72202,-3.36845 14.17711,-3.36845 6.6,0 12.62807,0.39769 13.39571,0.88376 1.61823,1.02465 0.77822,4.09292 -1.11433,4.0703 -0.89771,-0.0107 -0.83476,-0.29768 0.21026,-0.95836 1.06274,-0.67189 1.18289,-1.25179 0.41787,-2.01681 -1.51463,-1.51463 -25.61343,-0.90924 -26.13315,0.6565 -0.21288,0.64131 0.42536,1.37661 1.4183,1.634 1.70564,0.44214 1.70697,0.47439 0.024,0.58398 -0.97976,0.0638 -2.05783,-0.60441 -2.39572,-1.48492 z m 5.94614,0.90793 c 0.97296,-0.25354 2.32296,-0.23687 3,0.0371 0.67703,0.27392 -0.11903,0.48136 -1.76903,0.46099 -1.65,-0.0204 -2.20394,-0.2445 -1.23097,-0.49805 z m 15.0643,0.0263 c 0.36667,-0.36667 0.96667,-0.36667 1.33333,0 0.36667,0.36666 0.0667,0.66666 -0.66666,0.66666 -0.73334,0 -1.03334,-0.3 -0.66667,-0.66666 z m 67.972,-0.0333 c 0.99294,-0.25739 1.63176,-0.99269 1.41961,-1.634 -0.24894,-0.7525 -4.4356,-1.36126 -11.80534,-1.71655 l -11.4196,-0.55053 11,-0.18416 c 6.05,-0.10128 11.62807,0.21354 12.39571,0.69961 1.84821,1.17028 0.64984,4.11705 -1.61433,3.96961 -1.68302,-0.10959 -1.68169,-0.14184 0.024,-0.58398 z m -57.30533,-0.67757 c 0,-0.20766 0.7875,-0.99516 1.75,-1.75 1.58605,-1.24387 1.62142,-1.2085 0.37755,0.37755 -1.30637,1.66575 -2.12755,2.19548 -2.12755,1.37245 z m 230.49667,-0.61707 c 0.33809,-0.54704 1.60215,-1.50258 2.80902,-2.12341 l 2.19431,-1.12878 -2.20819,2.1234 c -2.30446,2.21599 -3.85374,2.84165 -2.79514,1.12879 z m 6.06762,-0.71225 c -0.54269,-1.4252 -0.42782,-1.54006 0.55979,-0.55979 0.68342,0.67833 0.99067,1.48524 0.68279,1.79313 -0.30789,0.30788 -0.86705,-0.24712 -1.24258,-1.23334 z m -275.56429,-0.50741 c 0,-0.43214 0.9,-0.78572 2,-0.78572 1.1,0 2,0.35358 2,0.78572 0,0.43214 -0.9,0.78571 -2,0.78571 -1.1,0 -2,-0.35357 -2,-0.78571 z m 47.77643,-1.51921 c 2.35204,-0.21125 5.95204,-0.20828 8,0.007 2.04796,0.21488 0.12357,0.38772 -4.27643,0.38408 -4.4,-0.004 -6.07561,-0.17944 -3.72357,-0.39068 z m -248.50407,-5.26651 c 0,-2.475 0.19502,-3.4875 0.43337,-2.25 0.23835,1.2375 0.23835,3.2625 0,4.5 -0.23835,1.2375 -0.43337,0.225 -0.43337,-2.25 z m 311.38262,-2.82874 c -2.22938,-2.46344 -2.08521,-5.47194 0.36865,-7.69264 1.54578,-1.39891 1.72288,-2.02224 0.75,-2.63968 -0.7632,-0.48437 0.32943,-0.78281 2.72637,-0.74468 2.2,0.035 3.46562,0.28124 2.8125,0.54719 -0.80796,0.329 -0.56825,1.10281 0.75,2.42105 1.06562,1.06563 1.9375,2.48763 1.9375,3.16001 0,0.67238 -0.71852,0.19669 -1.5967,-1.05709 -3.29525,-4.70463 -9.99787,-0.96052 -7.62064,4.25692 1.49534,3.28192 5.48121,3.46671 7.66063,0.35516 0.85619,-1.22238 1.55671,-1.70452 1.55671,-1.07143 0,1.91558 -3.0001,4.29393 -5.41645,4.29393 -1.25047,0 -3.01832,-0.82293 -3.92857,-1.82874 z m -265.19778,-1.03429 c -5.51546,-3.36343 -8.81841,-11.26355 -7.37381,-17.63697 0.54596,-2.40874 0.70329,-1.93333 0.79829,2.41215 0.14246,6.51672 3.66145,13.24176 7.83316,14.96974 1.91035,0.79129 10.20698,1.07128 26.28822,0.88715 l 23.49694,-0.26904 0.33749,-2.38691 c 0.18562,-1.3128 -0.26438,-2.76841 -1,-3.23468 -0.73562,-0.46628 -10.78749,-0.86131 -22.33749,-0.87784 -21.28716,-0.0305 -25.2206,-0.61902 -26.31678,-3.93779 -0.306,-0.92645 0.51348,-0.65991 2.30589,0.75 2.6656,2.09676 3.67664,2.18722 24.44574,2.18722 22.74209,0 24.06515,0.24741 24.06515,4.5 0,4.2884 -1.22236,4.50019 -25.95,4.49627 -21.17503,-0.003 -23.85686,-0.19087 -26.5928,-1.8593 z m 84.69071,0.90291 c 22.69519,-0.59341 22.70188,-0.59528 26.99153,-7.53988 2.21132,-3.57996 2.47419,-2.58731 0.3848,1.45312 -0.81167,1.56959 -3.00228,3.79724 -4.86803,4.95034 -3.18091,1.96591 -4.63113,2.08345 -23.27425,1.88642 l -19.88196,-0.21013 z m 37.27229,-0.18443 c -2.25516,-1.09427 -5.44414,-5.84109 -5.38106,-8.00974 0.0215,-0.74014 0.65053,0.0591 1.39778,1.77599 2.69667,6.19606 3.54424,6.3783 29.66314,6.3783 20.36317,0 23.83797,-0.2204 24.9695,-1.58382 0.95345,-1.14883 1.02602,-2.04143 0.26424,-3.25 -0.92018,-1.45989 -3.81278,-1.69955 -23.36315,-1.93576 -14.40631,-0.17406 -22.78382,-0.66039 -23.64179,-1.37245 -0.9484,-0.7871 -1.32886,-4.06394 -1.32886,-11.44523 0,-9.61296 -0.15421,-10.4249 -2.1865,-11.51254 -1.90898,-1.02166 -2.48618,-0.80401 -4.54764,1.71481 l -2.36114,2.88499 1.18309,-2.69498 c 1.53361,-3.49346 3.61927,-4.22696 6.55309,-2.30465 2.23032,1.46136 2.3591,2.11763 2.3591,12.02269 0,5.76232 0.1125,10.56851 0.25,10.68043 0.1375,0.11191 10.77674,0.44941 23.64276,0.75 20.40192,0.47664 23.52742,0.76033 24.4459,2.21885 0.74821,1.18814 0.71309,2.41867 -0.12133,4.25 l -1.17446,2.57766 -24.27144,-0.0677 c -14.13827,-0.0394 -25.13974,-0.48901 -26.35123,-1.07687 z m 65.84883,0.45156 c 0.97296,-0.25354 2.32296,-0.23687 3,0.0371 0.67703,0.27392 -0.11903,0.48136 -1.76903,0.46099 -1.65,-0.0204 -2.20394,-0.2445 -1.23097,-0.49805 z m 37.6771,-0.41072 c 1.34537,-0.53732 2.94158,-1.2963 3.54713,-1.68662 0.60555,-0.39031 0.24243,0.0778 -0.80692,1.04033 -1.04935,0.9625 -2.64556,1.72148 -3.54713,1.68662 -1.03633,-0.0401 -0.73956,-0.42269 0.80692,-1.04033 z m 13.62529,-0.46771 c -1.26732,-1.26733 -1.57142,-4.08607 -1.57142,-14.56575 0,-13.29457 0.60688,-16.11635 3.72222,-17.30694 1.35303,-0.5171 1.24021,-0.17752 -0.47222,1.4213 -2.11462,1.97432 -2.25,2.89868 -2.25,15.36177 0,13.6599 0.53217,15.66104 4.16481,15.66104 2.71329,0 3.83519,-3.19858 3.83519,-10.93425 0,-3.88616 0.42427,-7.06575 0.94284,-7.06575 0.51856,0 2.55382,0.95051 4.52281,2.11224 1.96899,1.16173 5.48221,2.70663 7.80716,3.43311 2.32495,0.72647 3.32719,1.35061 2.22719,1.38697 -1.1,0.0364 -4.8125,-1.26443 -8.25,-2.89064 l -6.25,-2.95675 v 6.73503 c 0,9.65676 -3.91608,14.12111 -8.42858,9.60862 z m 53.62858,0.37142 c -0.66,-0.66 -1.18632,-1.6725 -1.1696,-2.25 0.0167,-0.5775 0.48909,-0.2625 1.04969,0.7 0.56061,0.9625 1.80692,1.75 2.7696,1.75 3.63809,0 4.15031,-1.99501 4.15031,-16.16481 0,-12.84581 -0.13664,-13.83795 -2.0466,-14.86012 -1.74851,-0.93578 -3.06781,-0.33823 -9.0583,4.1027 -8.04416,5.96338 -12.50504,7.8163 -18.96697,7.87834 -6.63745,0.0637 -12.56247,-2.31447 -19.8585,-7.97085 -3.5367,-2.74189 -6.09002,-4.98526 -5.67404,-4.98526 0.41597,0 3.40692,2.0396 6.64655,4.53243 12.90886,9.93314 24.07201,9.99235 36.8484,0.19545 7.92366,-6.07584 7.92725,-6.07728 10.66322,-4.2846 2.40086,1.5731 2.44624,1.86078 2.44624,15.50835 0,11.30805 -0.29354,14.19905 -1.57143,15.47695 -1.87152,1.87152 -4.5677,2.0323 -6.22857,0.37142 z m 12.72307,-1.72307 c -1.60769,-1.6077 -2.90506,-3.5202 -2.88304,-4.25 0.022,-0.72981 0.70547,-0.10074 1.51877,1.39793 0.8133,1.49867 2.3407,3.18617 3.39422,3.75 1.13483,0.60735 10.52107,1.02514 23.03089,1.02514 22.58389,0 26.13652,-0.65338 27.53652,-5.06439 0.3642,-1.14748 0.88255,-1.86596 1.15189,-1.59661 0.98523,0.98522 -1.81017,4.68093 -4.65231,6.15065 -2.34093,1.21054 -7.21364,1.51035 -24.54728,1.51035 h -21.62658 z m 63.31049,0.67307 c -5.2939,-3.67827 -7.23356,-8.91859 -7.23356,-19.54267 0,-8.60115 0.14873,-9.25868 2.43294,-10.75535 1.82237,-1.19406 2.92034,-1.33327 4.37508,-0.55472 2.02498,1.08374 3.67768,5.10274 2.09836,5.10274 -0.49851,0 -0.90638,-0.6199 -0.90638,-1.37755 0,-2.47077 -2.63426,-3.88856 -4.93608,-2.65666 -1.85065,0.99044 -2.06392,2.03508 -2.06392,10.10924 0,9.63583 1.54997,14.39898 5.99567,18.42497 2.01228,1.82231 4.04297,2.04797 22.85641,2.53988 l 20.64792,0.53987 -20.01409,0.21013 c -19.303,0.20266 -20.12913,0.13018 -23.25235,-2.03988 z m 57.5491,-0.32766 c -0.83468,-1.83191 -0.86965,-3.06148 -0.12087,-4.25 0.92011,-1.46046 4.00687,-1.73568 24.36359,-2.17234 17.39539,-0.37313 23.415463,-0.81717 23.725641,-1.75 0.324175,-0.97492 -4.466021,-1.25 -21.767691,-1.25 h -22.18333 l -3.4,-3.4 c -4.61216,-4.61215 -4.79877,-10.35507 -0.47693,-14.67692 1.60769,-1.60769 3.36269,-2.92308 3.9,-2.92308 0.53731,0 -0.61064,1.58757 -2.551,3.52793 -3.18793,3.18793 -3.47468,3.92486 -2.97547,7.64675 0.30385,2.26535 1.49786,5.06528 2.65337,6.22207 1.97939,1.98158 3.41552,2.13218 24.82547,2.60325 21.891222,0.48167 22.724555,0.57335 22.724555,2.5 0,1.92876 -0.833333,2.01782 -23.392305,2.5 -20.39801,0.436 -23.52667,0.71328 -24.44201,2.16618 -0.76118,1.20821 -0.68842,2.10151 0.26475,3.25 1.13381,1.36616 4.67827,1.58382 25.7908,1.58382 h 24.476346 l 3.056248,-3.25 c 2.034756,-2.16375 2.667613,-2.51512 1.893473,-1.05128 -2.702228,5.1097 -3.800569,5.30128 -30.391247,5.30128 h -24.79893 z m -367.3747,-1.95124 c -3.10237,-3.28948 -5.43792,-9.77448 -4.028,-11.18439 0.34102,-0.34102 0.62172,0.46746 0.62377,1.79663 0.004,2.82845 3.22455,8.44762 6.32479,11.03669 1.19431,0.99739 1.77461,1.82841 1.28955,1.8467 -0.48506,0.0183 -2.3796,-1.55473 -4.21011,-3.49563 z m 125.59204,3.0289 c 0,-0.275 0.225,-0.5 0.5,-0.5 0.275,0 0.5,0.225 0.5,0.5 0,0.275 -0.225,0.5 -0.5,0.5 -0.275,0 -0.5,-0.225 -0.5,-0.5 z m 231.26521,-2.91907 c 2.07087,-2.15549 4.16779,-5.30549 4.65982,-7 0.65022,-2.23933 0.91922,-2.50671 0.98478,-0.97881 0.11302,2.63431 -3.60857,8.17937 -6.90981,10.29542 -1.74736,1.12003 -1.36645,0.4226 1.26521,-2.31661 z m -235.3409,-0.33093 -2.42431,-2.75 2.75,2.42432 c 2.57028,2.26588 3.20858,3.07568 2.42431,3.07568 -0.17913,0 -1.41663,-1.2375 -2.75,-2.75 z m 329.327869,-1.75 c 0.0111,-2.2 0.215884,-2.98225 0.455077,-1.73834 0.239193,1.24392 0.230112,3.04392 -0.02018,4 -0.250292,0.95609 -0.445996,-0.0617 -0.434897,-2.26166 z m -557.020179,-0.5 c 0,-1.925 0.20579,-2.7125 0.45732,-1.75 0.25153,0.9625 0.25153,2.5375 0,3.5 -0.25153,0.9625 -0.45732,0.175 -0.45732,-1.75 z m 279.97767,0.49326 c 0.39031,-0.60555 1.14929,-2.20175 1.68661,-3.54713 0.61764,-1.54647 1.00026,-1.84325 1.04033,-0.80691 0.0349,0.90157 -0.72411,2.49778 -1.68661,3.54713 -0.9625,1.04935 -1.43065,1.41246 -1.04033,0.80691 z m -166.13071,-2.758 c -1.33156,-0.67939 -2.63481,-1.91026 -2.8961,-2.73526 -0.33635,-1.06201 0.18223,-0.91601 1.77602,0.5 2.06327,1.83313 3.66812,2 19.23446,2 16.64201,0 17.02178,-0.0474 18.89501,-2.36078 2.47838,-3.06068 2.43872,-7.61214 -0.0883,-10.13922 -1.84713,-1.84712 -3.33334,-2 -19.4433,-2 -16.89179,0 -17.49252,0.0703 -19,2.22251 -0.85619,1.22238 -1.5567,1.74212 -1.5567,1.15499 0,-0.58714 0.82293,-1.81227 1.82874,-2.72251 1.5526,-1.40508 4.42844,-1.65499 19.04545,-1.65499 16.94614,0 17.25529,0.0386 19.67126,2.45455 1.35,1.35 2.45455,3.62235 2.45455,5.04966 0,3.77791 -2.57131,8.1482 -5.20996,8.85504 -4.38129,1.17364 -32.16679,0.67415 -34.71108,-0.62399 z m 110.92104,0.76474 c 0,-0.275 0.225,-0.5 0.5,-0.5 0.275,0 0.5,0.225 0.5,0.5 0,0.275 -0.225,0.5 -0.5,0.5 -0.275,0 -0.5,-0.225 -0.5,-0.5 z m 133.34397,-1.046 c -0.33525,-0.87364 -0.17979,-2.01818 0.34546,-2.54343 0.56045,-0.56045 8.98136,-0.84253 20.38278,-0.68278 18.67038,0.2616 19.42779,0.35019 19.42779,2.27221 0,1.92343 -0.75708,2.01039 -19.77325,2.27122 -17.30451,0.23736 -19.84934,0.0729 -20.38278,-1.31722 z m 39.40682,-1.204 c 0.32325,-0.9716 -3.94566,-1.25 -19.16746,-1.25 -16.86426,0 -19.58333,0.21127 -19.58333,1.5216 0,1.31864 2.55649,1.48537 19.16746,1.25 14.24734,-0.20188 19.27421,-0.59246 19.58333,-1.5216 z m 22.9644,0.74062 c -2.15726,-1.6969 -2.68065,-2.89144 -2.54709,-5.8132 l 0.1681,-3.67742 0.39137,3.73495 c 0.64877,6.19146 2.39034,6.76505 20.54039,6.76505 15.46634,0 15.87826,-0.0553 18.27749,-2.45454 2.2139,-2.21391 2.45455,-3.27273 2.45455,-10.8 0,-7.85756 0.87921,-10.74546 3.27142,-10.74546 0.47929,0 0.16429,0.70715 -0.7,1.57143 -1.17667,1.17668 -1.57142,3.66093 -1.57142,9.88922 0,13.03123 0.10013,12.96662 -20.69431,13.35255 -15.97053,0.2964 -17.02088,0.19868 -19.5905,-1.82258 z m 110.479754,-0.49062 c 0.02038,-1.65 0.244499,-2.20393 0.498042,-1.23096 0.253543,0.97296 0.236869,2.32296 -0.03705,3 -0.273923,0.67703 -0.481368,-0.11904 -0.460988,-1.76904 z m -294.382444,0.81689 c 0.72187,-0.28887 1.58437,-0.25334 1.91666,0.079 0.33229,0.33229 -0.25833,0.56864 -1.3125,0.52522 -1.16494,-0.048 -1.4019,-0.28494 -0.60416,-0.60417 z m 32.52083,0.0165 c 0.36667,-0.36667 0.96667,-0.36667 1.33333,0 0.36667,0.36666 0.0667,0.66666 -0.66666,0.66666 -0.73334,0 -1.03334,-0.3 -0.66667,-0.66666 z m 79.8267,-3.39221 c -0.19643,-5.59562 1.53178,-8.30382 4.89599,-7.67228 2.35246,0.44161 2.34171,0.46389 -0.28697,0.59497 -2.87478,0.14336 -3.36811,1.12494 -4.08907,8.13618 -0.30776,2.99285 -0.3831,2.83942 -0.51995,-1.05887 z m -125.16003,2.05887 c 0,-0.73333 0.3,-1.03333 0.66666,-0.66666 0.36667,0.36666 0.36667,0.96666 0,1.33333 -0.36666,0.36667 -0.66666,0.0667 -0.66666,-0.66667 z m 10,0.5 c 0,-0.275 0.225,-0.5 0.5,-0.5 0.275,0 0.5,0.225 0.5,0.5 0,0.275 -0.225,0.5 -0.5,0.5 -0.275,0 -0.5,-0.225 -0.5,-0.5 z m 38.5,-0.5 c 0.33991,-0.55 0.84303,-1 1.11803,-1 0.275,0 0.22188,0.45 -0.11803,1 -0.33992,0.55 -0.84304,1 -1.11804,1 -0.275,0 -0.22188,-0.45 0.11804,-1 z m -20.16667,-0.66666 c 0.36667,-0.36667 0.96667,-0.36667 1.33333,0 0.36667,0.36666 0.0667,0.66666 -0.66666,0.66666 -0.73334,0 -1.03334,-0.3 -0.66667,-0.66666 z m 2.75,0.3837 c 0.22917,-0.15564 1.31667,-0.94314 2.41667,-1.75 1.85,-1.35701 1.89707,-1.33579 0.62755,0.28296 -0.75484,0.9625 -1.84234,1.75 -2.41667,1.75 -0.57432,0 -0.85672,-0.12733 -0.62755,-0.28296 z m -93.79732,-5.71704 c 0.009,-3.60379 0.19915,-4.4657 0.55171,-2.5 0.52712,2.93906 0.55167,2.91875 1.20826,-1 0.64883,-3.87244 0.67424,-3.8246 0.7968,1.5 0.0823,3.5757 -0.18616,5.00594 -0.7673,4.0879 -0.69169,-1.09268 -0.99673,-0.86647 -1.34851,1 -0.25004,1.32666 -0.44847,-0.0629 -0.44096,-3.0879 z m 71.71399,4.5 c 0,-0.275 0.225,-0.5 0.5,-0.5 0.275,0 0.5,0.225 0.5,0.5 0,0.275 -0.225,0.5 -0.5,0.5 -0.275,0 -0.5,-0.225 -0.5,-0.5 z m 16.4045,-0.6545 c -0.44208,-0.7153 -0.27431,-0.88307 0.44099,-0.44099 0.63498,0.39244 1.15451,0.91197 1.15451,1.15451 0,0.83414 -0.88306,0.43923 -1.5955,-0.71352 z m 73.5955,0.23084 c 1.375,-0.41347 3.85,-1.03131 5.5,-1.37296 l 3,-0.6212 -3,1.41381 c -1.65,0.77759 -4.125,1.39542 -5.5,1.37296 l -2.5,-0.0408 z M -62.570208,398.3281 c -0.166268,-14.41293 -0.892134,-26.27964 -2.202059,-36 -3.053899,-22.66159 -3.083263,-22.97577 -1.542123,-16.5 2.967231,12.46812 4.639553,33.41476 4.311212,54 l -0.319007,20 z m -558.782432,-1 c 0,-11.825 0.14465,-16.6625 0.32145,-10.75 0.1768,5.9125 0.1768,15.5875 0,21.5 -0.1768,5.9125 -0.32145,1.075 -0.32145,-10.75 z m 283.78087,12.45 c -0.12458,-5.48298 -0.6955,-9.62151 -1.44849,-10.5 -0.77365,-0.90259 -0.56924,-0.85458 0.54145,0.12717 1.5151,1.33921 1.73364,2.92344 1.44849,10.5 l -0.33581,8.92283 z m 122.45898,6.37548 c -0.31276,-1.19599 -0.22969,-2.78022 0.1846,-3.52051 0.45865,-0.81957 0.79227,0.0309 0.85304,2.17452 0.11435,4.03404 -0.22096,4.46899 -1.03764,1.34599 z m -357.54962,-1.44062 c -0.0659,-1.78543 0.76969,-4.23983 1.95759,-5.75 l 2.07258,-2.63486 h 21.84563 c 12.0151,0 22.55743,-0.27314 23.42742,-0.60698 1.88922,-0.72497 2.08533,-4.45926 0.33179,-6.31802 -1.00879,-1.06931 -0.96055,-1.23775 0.25,-0.87288 0.825,0.24867 1.6511,1.74523 1.83578,3.32569 0.59815,5.11877 -1.00588,5.47219 -24.83578,5.47219 -24.19216,0 -24.7754,0.14756 -26.01507,6.58169 -0.7061,3.66483 -0.76238,3.71679 -0.86994,0.80317 z m 62.07995,0.11514 c 0.0204,-1.65 0.2445,-2.20393 0.49805,-1.23096 0.25354,0.97296 0.23687,2.32296 -0.0371,3 -0.27392,0.67703 -0.48137,-0.11904 -0.46099,-1.76904 z m 122.15447,-5.5 c 0,-4.675 0.17226,-6.5875 0.38279,-4.25 0.21054,2.3375 0.21054,6.1625 0,8.5 -0.21053,2.3375 -0.38279,0.425 -0.38279,-4.25 z m 41.65059,7 c 0,-0.73333 0.3,-1.03333 0.66666,-0.66666 0.36667,0.36666 0.36667,0.96666 0,1.33333 -0.36666,0.36667 -0.66666,0.0667 -0.66666,-0.66667 z m 254.176606,-2.12856 c -1.277865,-1.57574 -1.718184,-2.63275 -0.978488,-2.3489 1.349609,0.51789 4.219541,4.43548 3.621165,4.94306 -0.175608,0.14896 -1.364813,-1.01841 -2.642677,-2.59416 z m -280.060606,0.53355 c -0.0638,-1.15226 0.8965,-2.95226 2.134,-4 2.23153,-1.88935 2.23648,-1.88857 0.60323,0.095 -0.90572,1.1 -1.86602,2.9 -2.134,4 -0.4686,1.92352 -0.49167,1.91988 -0.60323,-0.095 z m 10.7085,-0.73081 c -0.37206,-1.82482 -0.23268,-2.48236 0.39345,-1.85622 0.53328,0.53328 0.79255,1.8049 0.57615,2.82582 -0.29141,1.37482 -0.54287,1.12336 -0.9696,-0.9696 z m 75.1755,0.40825 c 2.79411,-2.27771 5,-2.68173 5,-0.91576 0,0.64167 -0.28206,0.88461 -0.62679,0.53988 -0.34473,-0.34473 -2.03223,0.0574 -3.75,0.89353 l -3.12321,1.52031 z m 135.19869,-5.27572 c -0.17284,-6.69232 -0.48787,-7.89584 -2.4212,-9.25 -1.78333,-1.2491 -1.88909,-1.55671 -0.53518,-1.55671 2.75409,0 3.86619,3.57968 3.49988,11.26554 l -0.3448,7.23446 z m -245.87862,0.19329 c 0,-3.575 0.18149,-5.0375 0.40332,-3.25 0.22183,1.7875 0.22183,4.7125 0,6.5 -0.22183,1.7875 -0.40332,0.325 -0.40332,-3.25 z m -121.12513,2.5 c 0.0204,-1.65 0.2445,-2.20393 0.49805,-1.23096 0.25354,0.97296 0.23687,2.32296 -0.0371,3 -0.27392,0.67703 -0.48137,-0.11904 -0.46099,-1.76904 z m 255.13839,-1.16666 c 0.36667,-0.36667 0.96667,-0.36667 1.33333,0 0.36667,0.36666 0.0667,0.66666 -0.66666,0.66666 -0.73334,0 -1.03334,-0.3 -0.66667,-0.66666 z m 33.66667,0.16666 c 0,-0.275 0.225,-0.5 0.5,-0.5 0.275,0 0.5,0.225 0.5,0.5 0,0.275 -0.225,0.5 -0.5,0.5 -0.275,0 -0.5,-0.225 -0.5,-0.5 z m 3,0 c 0,-0.275 0.225,-0.5 0.5,-0.5 0.275,0 0.5,0.225 0.5,0.5 0,0.275 -0.225,0.5 -0.5,0.5 -0.275,0 -0.5,-0.225 -0.5,-0.5 z m 2.84988,-0.81911 c 0.62302,-0.7507 0.83667,-1.661 0.47477,-2.0229 -0.36189,-0.36189 -10.68247,-0.65799 -22.93462,-0.65799 -21.88642,0 -22.30389,-0.0389 -23.83333,-2.2225 -2.00333,-2.86016 -1.96421,-3.36999 0.4433,-5.7775 1.882,-1.882 3.33333,-2 24.59887,-2 18.31041,0 23.21681,0.29324 25.85523,1.54525 3.28378,1.55825 6.45093,5.88306 5.21407,7.11991 -0.3675,0.3675 -0.66817,-0.003 -0.66817,-0.82418 0,-0.82079 -1.16035,-2.58329 -2.57856,-3.91666 -2.55924,-2.40616 -2.75683,-2.42656 -26.37885,-2.72403 -20.61412,-0.2596 -24.0116,-0.0884 -25.37864,1.27861 -1.10571,1.10571 -1.33258,2.24353 -0.75764,3.79972 0.80837,2.18804 1.17159,2.22889 24.19445,2.72138 20.52731,0.43911 23.41173,0.6978 23.68559,2.12418 0.17151,0.89329 -0.44891,1.91609 -1.37871,2.27289 -1.34103,0.5146 -1.45634,0.36654 -0.55776,-0.71618 z m 21.4023,-2.18089 c 0.0111,-2.2 0.21588,-2.98225 0.45508,-1.73834 0.23919,1.24392 0.23011,3.04392 -0.0202,4 -0.2503,0.95609 -0.446,-0.0617 -0.4349,-2.26166 z m 62.99782,2.83772 c -0.6875,-0.27741 -1.25,-1.36688 -1.25,-2.42105 0,-1.83443 1.00673,-1.91667 23.46481,-1.91667 22.441362,0 23.511504,-0.0872 24.535185,-2 0.76049,-1.42098 0.76049,-2.57901 0,-4 -0.588702,-1.1 -0.845367,-2 -0.570367,-2 0.275,0 0.997815,0.93018 1.606255,2.06706 0.860541,1.60794 0.752178,2.60745 -0.487869,4.5 l -1.594125,2.43294 h -22.976949 c -12.63732,0 -22.97694,0.28789 -22.97694,0.63976 0,0.35187 0.7875,1.23756 1.75,1.9682 1.73004,1.31329 0.92127,1.70677 -1.5,0.72976 z m 11.04158,-0.0802 c 3.73538,-0.19293 9.58538,-0.1915 13,0.003 3.41463,0.19467 0.35842,0.35252 -6.79158,0.35077 -7.15,-0.002 -9.94379,-0.16103 -6.20842,-0.35395 z m 26.70842,0.24249 c 0,-0.275 0.225,-0.5 0.5,-0.5 0.275,0 0.5,0.225 0.5,0.5 0,0.275 -0.225,0.5 -0.5,0.5 -0.275,0 -0.5,-0.225 -0.5,-0.5 z m 3.812495,-0.18311 c 0.721875,-0.28887 1.584375,-0.25334 1.916667,0.079 0.332292,0.33229 -0.258333,0.56864 -1.3125,0.52522 -1.164943,-0.048 -1.401899,-0.28494 -0.604167,-0.60417 z M -364.7774,409.82806 c 0,-0.275 0.225,-0.5 0.5,-0.5 0.275,0 0.5,0.225 0.5,0.5 0,0.275 -0.225,0.5 -0.5,0.5 -0.275,0 -0.5,-0.225 -0.5,-0.5 z m -215,-2.19114 c 0,-2.05815 5.31767,-7.54364 8.67119,-8.94483 2.47569,-1.03441 8.52818,-1.31428 25.04669,-1.15817 l 21.78212,0.20586 -23,0.54414 c -25.21408,0.59653 -25.86505,0.7442 -29.98092,6.80125 -1.3855,2.03894 -2.51908,3.18723 -2.51908,2.55175 z m 62,0 c 0,-2.05815 5.31767,-7.54364 8.67119,-8.94483 2.41158,-1.00762 7.91081,-1.31215 21.04669,-1.16547 l 17.78212,0.19855 -19,0.55145 c -20.86027,0.60544 -21.96198,0.89415 -25.98092,6.80855 -1.3855,2.03894 -2.51908,3.18723 -2.51908,2.55175 z m 55.59565,-2.41622 c -0.98957,-1.6752 -3.21592,-3.90968 -4.94744,-4.96549 -1.73152,-1.05582 -2.68584,-1.92135 -2.12072,-1.92341 2.46311,-0.009 10.53099,8.27111 9.27903,9.52307 -0.22641,0.22641 -1.22131,-0.95896 -2.21087,-2.63417 z m 64.40435,-3.39264 c 0,-0.275 0.225,-0.5 0.5,-0.5 0.275,0 0.5,0.225 0.5,0.5 0,0.275 -0.225,0.5 -0.5,0.5 -0.275,0 -0.5,-0.225 -0.5,-0.5 z m 1.5,-2.5 c 0.33991,-0.55 0.84303,-1 1.11803,-1 0.275,0 0.22188,0.45 -0.11803,1 -0.33992,0.55 -0.84304,1 -1.11804,1 -0.275,0 -0.22188,-0.45 0.11804,-1 z m 5.9045,-0.1545 c -0.44208,-0.7153 -0.27431,-0.88307 0.44099,-0.44099 1.15275,0.71244 1.54766,1.59549 0.71352,1.59549 -0.24254,0 -0.76207,-0.51952 -1.15451,-1.1545 z m 45.0955,0.1545 c 0.33991,-0.55 0.84303,-1 1.11803,-1 0.275,0 0.22188,0.45 -0.11803,1 -0.33992,0.55 -0.84304,1 -1.11804,1 -0.275,0 -0.22188,-0.45 0.11804,-1 z m -47.5,-1.5 c 0,-0.275 0.225,-0.5 0.5,-0.5 0.275,0 0.5,0.225 0.5,0.5 0,0.275 -0.225,0.5 -0.5,0.5 -0.275,0 -0.5,-0.225 -0.5,-0.5 z m 51,0 c 0,-0.275 0.225,-0.5 0.5,-0.5 0.275,0 0.5,0.225 0.5,0.5 0,0.275 -0.225,0.5 -0.5,0.5 -0.275,0 -0.5,-0.225 -0.5,-0.5 z m 212.25,-0.24676 c 6.4625,-0.17419 17.0375,-0.17419 23.5,0 6.462495,0.17418 1.175,0.3167 -11.75,0.3167 -12.925,0 -18.2125,-0.14252 -11.75,-0.3167 z m -275.87572,-20.72025 c -0.30962,-0.80685 -0.36996,-2.04435 -0.13409,-2.75 0.23587,-0.70564 0.66591,-0.0455 0.95566,1.46701 0.56573,2.95323 0.099,3.68204 -0.82157,1.28299 z m 74.0307,-0.78299 -1.90498,-2.25 2.5,1.98935 c 1.375,1.09414 2.6875,2.10664 2.91666,2.25 0.22917,0.14336 -0.0386,0.26065 -0.59501,0.26065 -0.55642,0 -1.86892,-1.0125 -2.91667,-2.25 z m -71.40498,-0.25 c 0,-0.275 0.225,-0.5 0.5,-0.5 0.275,0 0.5,0.225 0.5,0.5 0,0.275 -0.225,0.5 -0.5,0.5 -0.275,0 -0.5,-0.225 -0.5,-0.5 z m 75.13618,-1.26469 c -0.0919,-1.52847 0.83792,-2.85709 2.86022,-4.08693 1.64803,-1.00222 2.66053,-2.19275 2.25,-2.64563 -0.41052,-0.45287 -0.1839,-0.49969 0.5036,-0.10405 1.78739,1.0286 1.60129,1.36828 -1.67901,3.06459 -1.61095,0.83306 -3.12467,2.53211 -3.36382,3.77568 l -0.43481,2.26103 z m -68.32368,0.0816 c 0.72187,-0.28887 1.58437,-0.25334 1.91666,0.079 0.33229,0.33229 -0.25833,0.56864 -1.3125,0.52522 -1.16494,-0.048 -1.4019,-0.28494 -0.60416,-0.60417 z m 56.1875,0.18311 c 0,-0.275 0.225,-0.5 0.5,-0.5 0.275,0 0.5,0.225 0.5,0.5 0,0.275 -0.225,0.5 -0.5,0.5 -0.275,0 -0.5,-0.225 -0.5,-0.5 z m 3,0 c 0,-0.275 0.225,-0.5 0.5,-0.5 0.275,0 0.5,0.225 0.5,0.5 0,0.275 -0.225,0.5 -0.5,0.5 -0.275,0 -0.5,-0.225 -0.5,-0.5 z m -63,-1 c 0,-0.275 0.225,-0.5 0.5,-0.5 0.275,0 0.5,0.225 0.5,0.5 0,0.275 -0.225,0.5 -0.5,0.5 -0.275,0 -0.5,-0.225 -0.5,-0.5 z m -220.74782,-4 c 0.0111,-2.2 0.21588,-2.98225 0.45508,-1.73834 0.23919,1.24392 0.23011,3.04392 -0.0202,4 -0.2503,0.95609 -0.446,-0.0617 -0.4349,-2.26166 z m 225.74782,3 c 0,-0.275 0.225,-0.5 0.5,-0.5 0.275,0 0.5,0.225 0.5,0.5 0,0.275 -0.225,0.5 -0.5,0.5 -0.275,0 -0.5,-0.225 -0.5,-0.5 z m 20,-0.5 c 0,-0.73333 0.3,-1.03333 0.66666,-0.66666 0.36667,0.36666 0.36667,0.96666 0,1.33333 -0.36666,0.36667 -0.66666,0.0667 -0.66666,-0.66667 z m 2,0.5 c 0,-0.275 0.225,-0.5 0.5,-0.5 0.275,0 0.5,0.225 0.5,0.5 0,0.275 -0.225,0.5 -0.5,0.5 -0.275,0 -0.5,-0.225 -0.5,-0.5 z m 9,-1 c -1.375,-0.78602 -2.02351,-1.44507 -1.44113,-1.46456 0.58237,-0.0195 1.93237,0.62525 3,1.43276 2.46897,1.86744 1.68038,1.88353 -1.55887,0.0318 z m 4.15789,-0.5 c 0,-1.375 0.22697,-1.9375 0.50439,-1.25 0.27741,0.6875 0.27741,1.8125 0,2.5 -0.27742,0.6875 -0.50439,0.125 -0.50439,-1.25 z m 20.84211,1 c 0,-0.73333 0.3,-1.03333 0.66666,-0.66666 0.36667,0.36666 0.36667,0.96666 0,1.33333 -0.36666,0.36667 -0.66666,0.0667 -0.66666,-0.66667 z m -32,-0.5 c 0,-0.275 0.225,-0.5 0.5,-0.5 0.275,0 0.5,0.225 0.5,0.5 0,0.275 -0.225,0.5 -0.5,0.5 -0.275,0 -0.5,-0.225 -0.5,-0.5 z m -37,-1 c 0,-0.275 0.225,-0.5 0.5,-0.5 0.275,0 0.5,0.225 0.5,0.5 0,0.275 -0.225,0.5 -0.5,0.5 -0.275,0 -0.5,-0.225 -0.5,-0.5 z m 12,0 c 0,-0.275 0.225,-0.5 0.5,-0.5 0.275,0 0.5,0.225 0.5,0.5 0,0.275 -0.225,0.5 -0.5,0.5 -0.275,0 -0.5,-0.225 -0.5,-0.5 z m 27,0 c 0,-0.275 0.225,-0.5 0.5,-0.5 0.275,0 0.5,0.225 0.5,0.5 0,0.275 -0.225,0.5 -0.5,0.5 -0.275,0 -0.5,-0.225 -0.5,-0.5 z m -41.5691,-1.6118 c -0.69039,-1.11708 1.20298,-2.87065 3.0691,-2.84247 0.55,0.008 0.20303,0.47906 -0.77104,1.04614 -0.97406,0.56708 -1.51001,1.4534 -1.19098,1.96959 0.31903,0.5162 0.35505,0.93854 0.08,0.93854 -0.275,0 -0.80921,-0.50031 -1.18713,-1.1118 z m 72.5691,0.1118 c 0,-0.73333 0.3,-1.03333 0.66666,-0.66666 0.36667,0.36666 0.36667,0.96666 0,1.33333 -0.36666,0.36667 -0.66666,0.0667 -0.66666,-0.66667 z m -58,-1.5 c 0,-0.275 0.225,-0.5 0.5,-0.5 0.275,0 0.5,0.225 0.5,0.5 0,0.275 -0.225,0.5 -0.5,0.5 -0.275,0 -0.5,-0.225 -0.5,-0.5 z m 22.07894,-1.08333 c 0.048,-1.16494 0.28494,-1.4019 0.60417,-0.60417 0.28887,0.72188 0.25334,1.58438 -0.079,1.91667 -0.33229,0.33229 -0.56864,-0.25833 -0.52522,-1.3125 z m 34.92106,0.0833 c 0,-0.275 0.225,-0.5 0.5,-0.5 0.275,0 0.5,0.225 0.5,0.5 0,0.275 -0.225,0.5 -0.5,0.5 -0.275,0 -0.5,-0.225 -0.5,-0.5 z m 12.02896,-0.46094 c -0.80908,-0.51167 -1.25837,-1.14299 -0.99843,-1.40292 0.25993,-0.25994 1.34541,0.16559 2.41217,0.94563 2.13344,1.56 0.9402,1.94598 -1.41374,0.45729 z m -67.66864,-0.81305 c 0.38612,-0.62477 -0.28896,-1.26721 -1.59549,-1.51833 -1.96006,-0.37673 -1.89477,-0.45364 0.48517,-0.57149 2.81148,-0.13923 3.6668,1.17917 1.59549,2.45931 -0.6881,0.42526 -0.88411,0.276 -0.48517,-0.36949 z m -11.36032,-0.72601 c 0,-0.275 0.225,-0.5 0.5,-0.5 0.275,0 0.5,0.225 0.5,0.5 0,0.275 -0.225,0.5 -0.5,0.5 -0.275,0 -0.5,-0.225 -0.5,-0.5 z m 66,-0.5 c 0,-0.73333 0.3,-1.03333 0.66666,-0.66666 0.36667,0.36666 0.36667,0.96666 0,1.33333 -0.36666,0.36667 -0.66666,0.0667 -0.66666,-0.66667 z m -279.52805,-5 c 0.42103,-6.35519 3.59867,-24.2627 4.19886,-23.66252 0.22244,0.22245 -0.49215,5.75002 -1.588,12.28349 -2.77278,16.53148 -3.02505,17.63094 -2.61086,11.37903 z m 219.52805,4.5 c 0,-0.275 0.225,-0.5 0.5,-0.5 0.275,0 0.5,0.225 0.5,0.5 0,0.275 -0.225,0.5 -0.5,0.5 -0.275,0 -0.5,-0.225 -0.5,-0.5 z m 23.17431,-1.81445 c -2.43585,-2.59284 -2.7346,-3.68555 -1.00765,-3.68555 0.64167,0 0.86255,0.30412 0.49086,0.67582 -0.3717,0.37169 0.30674,1.72169 1.50764,3 1.20091,1.2783 1.95846,2.32418 1.68346,2.32418 -0.275,0 -1.47844,-1.0415 -2.67431,-2.31445 z m 17.82569,1.81445 c 0,-0.275 0.225,-0.5 0.5,-0.5 0.275,0 0.5,0.225 0.5,0.5 0,0.275 -0.225,0.5 -0.5,0.5 -0.275,0 -0.5,-0.225 -0.5,-0.5 z m 23,-0.22384 c 1.375,-0.24831 3.43338,-1.31615 4.57418,-2.37296 2.02494,-1.87587 3.44126,-1.66263 3.4105,0.51347 -0.009,0.62641 -0.35623,0.54615 -0.82362,-0.1903 -0.61744,-0.97288 -1.24077,-0.79578 -2.63968,0.75 -1.04044,1.14968 -2.95208,1.96482 -4.42637,1.88745 l -2.59501,-0.13618 z m -68.92106,-1.85949 c 0.048,-1.16494 0.28494,-1.4019 0.60417,-0.60417 0.28887,0.72188 0.25334,1.58438 -0.079,1.91667 -0.33229,0.33229 -0.56864,-0.25833 -0.52522,-1.3125 z m 2.32556,-0.57117 c -0.44208,-0.7153 -0.27431,-0.88307 0.44099,-0.44099 0.63498,0.39244 1.15451,0.91197 1.15451,1.15451 0,0.83414 -0.88306,0.43923 -1.5955,-0.71352 z m 46.0955,0.1545 c 0.33991,-0.55 0.84303,-1 1.11803,-1 0.275,0 0.22188,0.45 -0.11803,1 -0.33992,0.55 -0.84304,1 -1.11804,1 -0.275,0 -0.22188,-0.45 0.11804,-1 z m -0.16667,-2.66666 c 0.36667,-0.36667 0.96667,-0.36667 1.33333,0 0.36667,0.36666 0.0667,0.66666 -0.66666,0.66666 -0.73334,0 -1.03334,-0.3 -0.66667,-0.66666 z m -17.52083,-1.01645 c 0.72187,-0.28887 1.58437,-0.25334 1.91666,0.079 0.33229,0.33229 -0.25833,0.56864 -1.3125,0.52522 -1.16494,-0.048 -1.4019,-0.28494 -0.60416,-0.60417 z m 13,0 c 0.72187,-0.28887 1.58437,-0.25334 1.91666,0.079 0.33229,0.33229 -0.25833,0.56864 -1.3125,0.52522 -1.16494,-0.048 -1.4019,-0.28494 -0.60416,-0.60417 z m -9.8125,-0.81689 c 0,-0.275 0.225,-0.5 0.5,-0.5 0.275,0 0.5,0.225 0.5,0.5 0,0.275 -0.225,0.5 -0.5,0.5 -0.275,0 -0.5,-0.225 -0.5,-0.5 z m 6.52579,-1.41872 c -0.36125,-1.13819 -1.33448,-2.7471 -2.16273,-3.57536 -0.82826,-0.82825 -1.03534,-1.50592 -0.46017,-1.50592 1.17433,0 4.51291,5.91753 3.76215,6.66829 -0.26534,0.26534 -0.778,-0.44881 -1.13925,-1.58701 z m -5.52579,-0.58128 c 0,-0.275 0.225,-0.5 0.5,-0.5 0.275,0 0.5,0.225 0.5,0.5 0,0.275 -0.225,0.5 -0.5,0.5 -0.275,0 -0.5,-0.225 -0.5,-0.5 z m 1,-2 c 0,-0.275 0.225,-0.5 0.5,-0.5 0.275,0 0.5,0.225 0.5,0.5 0,0.275 -0.225,0.5 -0.5,0.5 -0.275,0 -0.5,-0.225 -0.5,-0.5 z m 298.608593,-21.01278 c -2.447043,-10.45785 -7.855209,-27.36708 -12.19948,-38.14304 -1.90997,-4.73768 -3.278986,-8.80764 -3.042258,-9.04437 0.548027,-0.54803 7.675918,17.70649 11.011402,28.20019 3.840312,12.08193 6.747994,23.60589 6.405229,25.38573 -0.168276,0.87379 -1.146978,-2.00554 -2.174893,-6.39851 z m -543.945963,-0.46571 c 0.32815,-1.91318 1.19846,-5.28818 1.93402,-7.5 1.27506,-3.83414 1.30957,-3.85944 0.74071,-0.54301 -0.32815,1.91317 -1.19846,5.28817 -1.93402,7.5 -1.27506,3.83414 -1.30957,3.85944 -0.74071,0.54301 z m 3.33737,-13.02151 c 0,-0.73333 0.3,-1.03333 0.66666,-0.66666 0.36667,0.36666 0.36667,0.96666 0,1.33333 -0.36666,0.36667 -0.66666,0.0667 -0.66666,-0.66667 z m 1.48472,-4.25125 c 0.74585,-3.70394 6.65203,-19.94532 7.09284,-19.50452 0.19256,0.19256 -1.44921,5.27888 -3.64837,11.30294 -2.19916,6.02406 -3.74917,9.71477 -3.44447,8.20158 z m 8.10338,-22.74875 c 0.36364,-1.375 1.29652,-3.625 2.07307,-5 l 1.41189,-2.5 -0.66117,2.5 c -0.36364,1.375 -1.29652,3.625 -2.07307,5 l -1.41189,2.5 z m 3.4119,-8.41881 c 0,-1.10648 9.70862,-19.81746 11.4749,-22.11506 0.83131,-1.08137 -1.15782,3.36873 -4.42029,9.88911 -5.78782,11.56756 -7.05461,13.76298 -7.05461,12.22595 z m 508.104404,-5.84848 c -4.123042,-9.18948 -14.214304,-26.54624 -21.792534,-37.48271 -3.52529,-5.0875 -6.05013,-9.23841 -5.61075,-9.22424 2.86497,0.0924 32.656556,50.9499 30.884024,52.72243 -0.296809,0.29681 -1.863142,-2.41016 -3.48074,-6.01548 z m -493.467544,-21.7327 c 2.22248,-4.67105 14.11352,-22.54795 16.08806,-24.18667 0.86096,-0.71453 -2.21244,4.34634 -6.82977,11.24638 -4.61734,6.90004 -8.96405,13.42184 -9.65937,14.49291 -0.69532,1.07106 -0.51484,0.37238 0.40108,-1.55262 z m 21.79123,-31.90655 c 8.4876,-11.03027 32.56742,-36.03555 34.74446,-36.07978 0.3699,-0.008 -4.51057,5.04883 -10.8455,11.23633 -6.33492,6.1875 -15.14539,15.6375 -19.57882,21 -8.96876,10.84825 -11.31941,12.93953 -4.32014,3.84345 z m 437.01254,-1.34345 c -3.18155,-3.9875 -12.34474,-13.79188 -20.36264,-21.78752 -29.67437,-29.59199 -59.07028,-48.59832 -99.07799,-64.06025 -6.875,-2.657 -11.94661,-4.84696 -11.27024,-4.86657 3.2172,-0.0933 28.66526,10.5666 42.92947,17.98262 24.35474,12.66214 47.97222,29.87336 67.53654,49.21722 10.678,10.55767 28.10963,30.7645 26.53931,30.7645 -0.28039,0 -3.1129,-3.2625 -6.29445,-7.25 z m -396.69982,-39.58054 c 10.58094,-9.79271 36.73082,-26.99941 54.3854,-35.78576 12.72876,-6.33486 12.29555,-5.34443 -0.62621,1.43169 -19.9525,10.46301 -29.46677,16.51326 -47,29.88795 -6.05,4.61506 -9.09164,6.62481 -6.75919,4.46612 z m 66.65596,-41.24325 c 2.66418,-1.67127 13.86925,-5.99352 14.33369,-5.52908 0.21131,0.21132 -2.89886,1.67091 -6.9115,3.24354 -9.03351,3.54042 -9.79771,3.77574 -7.42219,2.28554 z m 15.60323,-6.3111 c 0,-0.46367 9.53395,-3.63862 10.68789,-3.55923 0.44666,0.0307 -1.21289,0.90558 -3.68789,1.94412 -4.31975,1.81262 -7,2.43104 -7,1.61511 z m 14.5,-5.11109 c 1.65,-0.77759 3.9,-1.40558 5,-1.39553 l 2,0.0183 -2,0.7879 c -1.1,0.43335 -3.35,1.06133 -5,1.39553 l -3,0.60762 z m 159.5,-0.58316 c -4.93475,-1.68953 -5.09214,-1.82475 -1.53144,-1.31564 4.122,0.58935 11.16633,3.24409 8.53144,3.21517 -0.825,-0.009 -3.975,-0.86384 -7,-1.89953 z m -151.1875,-1.60397 c 0.72187,-0.28887 1.58437,-0.25334 1.91666,0.079 0.33229,0.33229 -0.25833,0.56864 -1.3125,0.52522 -1.16494,-0.048 -1.4019,-0.28494 -0.60416,-0.60417 z m 4.73491,-1.18151 c 2.72683,-1.22668 18.50032,-4.42098 19.0612,-3.86009 0.24263,0.24263 -3.28255,1.18657 -7.83374,2.09766 -4.55118,0.91108 -9.39987,1.88758 -10.77487,2.16999 -2.18767,0.44933 -2.24421,0.39841 -0.45259,-0.40756 z m 129.95259,-1.27273 c -4.4,-1.04271 -13.85,-2.74073 -21,-3.77338 -7.15,-1.03264 -11.5112,-1.92517 -9.69156,-1.9834 5.92627,-0.18963 33.88644,4.6363 39.19156,6.76447 3.75233,1.50527 0.45412,1.11426 -8.5,-1.00769 z m -105.5,-3.8878 c 4.6455,-1.09402 22.0633,-3.00192 26.21058,-2.87104 1.80918,0.0571 -3.46058,0.92499 -11.71058,1.92864 -16.30318,1.98337 -19.91778,2.21829 -14.5,0.9424 z m 63.25,-2.6911 c 1.5125,-0.22913 3.9875,-0.22913 5.5,0 1.5125,0.22912 0.275,0.41659 -2.75,0.41659 -3.025,0 -4.2625,-0.18747 -2.75,-0.41659 z"
       id="path3267" />
  </g>
</svg>
